<?xml version="1.0" standalone="no"?>
<!DOCTYPE svg PUBLIC "-//W3C//DTD SVG 20010904//EN"
 "http://www.w3.org/TR/2001/REC-SVG-20010904/DTD/svg10.dtd">
<svg version="1.0" xmlns="http://www.w3.org/2000/svg"
 width="300.000000pt" height="169.000000pt" viewBox="0 0 300.000000 169.000000"
 preserveAspectRatio="xMidYMid meet">
<metadata>
Created by potrace 1.10, written by Peter Selinger 2001-2011
</metadata>
<g transform="translate(0.000000,169.000000) scale(0.100000,-0.100000)"
fill="#000000" stroke="none">
<path d="M38 1683 c6 -2 10 -9 6 -14 -7 -12 26 -11 65 2 41 14 35 22 -7 10
-20 -6 -32 -6 -32 0 0 5 -10 9 -22 8 -13 0 -17 -3 -10 -6z"/>
<path d="M164 1678 c-4 -6 -3 -8 3 -5 6 4 13 0 17 -8 7 -20 35 -19 43 1 3 8
12 13 20 10 8 -3 11 -1 8 4 -3 6 -15 10 -27 10 -15 0 -18 -4 -14 -17 6 -16 6
-16 -12 0 -22 20 -28 21 -38 5z"/>
<path d="M420 1685 c0 -2 14 -11 30 -20 32 -17 39 -12 16 11 -14 13 -46 20
-46 9z"/>
<path d="M998 1673 c-7 -9 -7 -13 0 -13 15 0 55 -68 47 -80 -7 -12 -41 -14
-48 -2 -2 4 -2 1 -1 -5 4 -17 -1 -16 -36 2 -17 9 -30 21 -29 28 0 9 2 9 5 0 6
-13 34 -6 34 8 0 4 -7 6 -15 3 -10 -4 -15 0 -15 12 0 16 -2 16 -10 4 -8 -12
-10 -12 -16 4 -4 11 -2 21 7 27 9 5 10 9 2 9 -6 0 -18 -6 -25 -12 -16 -16 -53
-17 -53 -1 0 21 -12 24 -18 3 -3 -11 -1 -18 4 -14 5 3 9 0 9 -5 0 -6 -9 -11
-20 -11 -13 0 -18 5 -14 15 5 11 2 13 -10 9 -9 -3 -23 0 -32 7 -12 10 -15 10
-12 -2 2 -8 12 -17 23 -21 14 -4 8 -6 -18 -7 -21 -1 -36 -5 -33 -10 3 -5 22
-7 42 -4 24 3 34 1 30 -5 -3 -6 -1 -14 5 -17 6 -4 8 -18 4 -32 -5 -21 -4 -23
9 -11 14 13 14 37 0 60 -13 20 79 -1 101 -24 l20 -20 -33 6 c-24 4 -38 0 -56
-15 -14 -12 -22 -27 -20 -34 4 -9 -3 -11 -20 -8 -21 4 -25 10 -22 32 1 14 -1
35 -5 46 -8 20 -8 20 -9 0 -1 -11 -3 -30 -6 -42 -2 -12 1 -25 6 -28 6 -3 10
-11 10 -17 0 -7 -5 -6 -14 1 -8 7 -17 8 -20 3 -11 -18 39 -32 99 -27 33 3 68
5 77 6 25 1 30 13 12 35 -11 13 -14 14 -11 3 6 -20 -60 -23 -80 -3 -16 15 -15
16 37 18 14 1 31 5 39 10 9 6 18 4 26 -7 7 -10 16 -17 20 -17 4 0 2 7 -5 15
-10 12 -10 15 1 15 8 0 20 -10 28 -22 7 -13 10 -20 6 -16 -9 9 -35 -9 -35 -24
0 -5 28 -8 63 -7 34 1 92 -1 130 -4 51 -4 66 -3 60 6 -4 8 -1 7 10 -1 14 -12
16 -10 13 15 -2 15 -5 29 -6 31 -1 1 -3 7 -4 14 -1 15 -26 23 -26 9 0 -13 -10
-14 -29 -2 -7 5 -10 14 -6 21 6 9 9 9 16 -1 6 -10 11 -11 20 -2 14 14 -22 53
-48 53 -13 0 -14 -3 -6 -11 12 -12 7 -39 -7 -39 -5 0 -10 10 -12 23 -2 12 -9
21 -16 20 -6 -2 -12 2 -12 8 0 6 6 9 14 6 8 -3 22 2 33 12 18 17 57 25 48 10
-3 -3 0 -21 6 -39 8 -22 15 -28 22 -21 16 16 25 14 30 -6 4 -17 5 -17 6 0 0 9
5 17 11 17 5 0 9 -3 9 -7 -3 -20 2 -24 15 -14 11 9 11 17 2 36 -6 14 -15 25
-19 25 -5 0 -5 -4 -2 -10 3 -6 -1 -7 -9 -4 -9 3 -13 11 -9 17 3 5 1 7 -5 4
-16 -11 -41 3 -35 19 4 10 -2 14 -20 14 -31 0 -77 -20 -77 -33 0 -5 -14 -7
-30 -5 -17 3 -33 1 -36 -4 -3 -4 0 -8 5 -8 6 0 10 -3 9 -7 -4 -11 39 -53 46
-45 3 3 6 -3 6 -14 0 -11 7 -30 16 -42 15 -22 15 -23 -2 -20 -11 2 -22 10 -26
18 -5 11 -7 9 -7 -7 -1 -13 -5 -23 -11 -23 -10 0 -8 23 4 52 8 18 1 38 -14 38
-5 0 -7 -7 -4 -15 4 -9 0 -15 -8 -15 -10 0 -13 9 -10 30 3 19 0 30 -7 30 -7 0
-9 5 -6 10 3 6 -1 13 -9 16 -9 3 -16 11 -16 16 0 6 6 6 14 -2 12 -9 15 -8 13
7 -1 22 -33 25 -49 6z m53 -120 c0 -5 2 -16 4 -25 3 -14 -1 -15 -21 -6 -25 11
-29 20 -17 31 9 9 33 9 34 0z m169 -34 c0 -4 -9 -9 -20 -12 -11 -3 -18 -1 -14
4 3 5 1 9 -5 9 -5 0 -12 -6 -15 -12 -3 -7 -4 -4 -3 7 3 33 56 36 57 4z"/>
<path d="M1250 1681 c8 -6 18 -7 22 -5 4 3 23 -6 41 -20 34 -26 47 -25 47 2 0
10 -7 12 -26 8 -21 -6 -25 -4 -21 8 5 13 -2 16 -36 16 -29 0 -38 -3 -27 -9z"/>
<path d="M1902 1663 c-18 -12 -38 -24 -45 -26 -7 -2 -9 -8 -4 -12 4 -5 13 -3
19 3 17 17 65 15 72 -4 9 -24 8 -24 -23 -6 -34 19 -54 9 -25 -12 17 -13 17
-18 7 -45 -14 -37 -2 -40 25 -6 11 14 25 25 31 25 16 0 44 -47 36 -61 -4 -6
-2 -15 6 -19 18 -12 39 29 27 53 -5 10 -12 16 -15 13 -7 -6 -34 20 -48 48 -23
44 -23 51 -1 52 11 1 28 4 36 5 11 3 14 -4 13 -23 -2 -33 6 -35 35 -8 12 12
23 16 27 10 3 -6 -1 -13 -9 -16 -9 -3 -16 -12 -16 -20 0 -10 -7 -13 -26 -8
-24 6 -25 5 -14 -15 7 -14 17 -20 27 -17 8 3 17 6 19 6 3 0 2 5 -1 11 -4 6 2
13 14 16 12 3 21 10 21 17 0 7 3 7 8 -1 8 -13 52 -6 52 8 0 6 -7 12 -15 15 -8
4 -15 13 -15 21 0 11 -7 13 -30 8 -17 -4 -36 -2 -43 3 -21 18 -110 9 -145 -15z"/>
<path d="M2166 1682 c-3 -5 4 -23 14 -40 11 -17 17 -38 14 -47 -4 -10 0 -15
11 -15 9 0 14 -4 11 -9 -3 -5 1 -11 9 -15 12 -4 15 4 15 46 0 44 -2 49 -15 38
-14 -11 -19 -7 -16 13 0 4 -3 7 -9 7 -5 0 -10 7 -10 15 0 16 -15 20 -24 7z"/>
<path d="M2288 1683 c6 -2 12 -14 12 -24 0 -25 16 -17 23 11 4 16 0 20 -21 19
-15 0 -21 -3 -14 -6z"/>
<path d="M2354 1663 c-4 -16 -22 -59 -41 -97 -32 -68 -43 -113 -23 -101 6 4 8
11 5 16 -4 5 -1 9 5 9 7 0 10 6 7 14 -3 8 4 22 15 33 25 22 49 68 41 76 -3 4
-1 12 4 19 18 23 22 58 7 58 -7 0 -17 -12 -20 -27z"/>
<path d="M2448 1649 c-2 -22 0 -39 4 -39 13 0 28 38 22 54 -4 12 0 14 21 10
14 -2 32 -1 40 4 9 5 -4 8 -34 9 l-49 1 -4 -39z"/>
<path d="M2718 1682 c-10 -2 -18 -10 -18 -19 0 -10 6 -13 16 -9 46 18 82 -107
48 -170 -18 -32 -44 -46 -44 -23 0 6 -9 22 -19 35 -16 21 -20 22 -25 7 -6 -15
8 -32 27 -33 10 0 9 -12 -3 -30 -8 -12 -15 -9 -41 20 l-31 35 18 -35 c22 -43
26 -77 13 -101 -7 -15 -6 -17 6 -13 8 4 21 1 29 -5 7 -6 16 -8 19 -4 4 3 7 2
7 -3 0 -6 7 -19 15 -30 13 -18 14 -16 13 23 -1 36 -3 40 -18 31 -21 -13 -53
-3 -47 15 2 6 12 11 21 11 9 -1 16 4 16 11 0 7 7 18 14 25 21 16 56 92 56 119
0 12 4 20 9 17 5 -3 11 5 13 18 3 17 1 23 -8 19 -7 -3 -21 11 -33 34 -29 54
-34 59 -53 55z"/>
<path d="M2891 1664 c-12 -15 -21 -35 -21 -45 0 -9 -3 -19 -7 -21 -8 -3 -23
-32 -58 -111 -9 -21 -17 -51 -17 -67 -1 -17 -5 -30 -11 -30 -6 0 -6 -5 0 -12
6 -7 9 -21 8 -31 -2 -9 1 -15 5 -12 5 3 10 -5 13 -17 3 -21 4 -22 12 -4 5 11
4 26 -3 37 -7 10 -12 24 -12 31 0 32 23 90 43 110 12 11 16 17 8 13 -10 -6
-12 -4 -5 6 4 8 9 19 10 25 1 6 17 39 37 75 22 41 40 63 51 63 9 -1 16 2 16 7
0 20 -50 8 -69 -17z"/>
<path d="M2421 1655 c-1 -11 -7 -31 -14 -45 -10 -18 -11 -32 -4 -48 12 -27 3
-39 -18 -22 -8 7 -23 9 -32 6 -13 -5 -14 -9 -5 -15 9 -5 3 -27 -23 -84 -38
-83 -41 -97 -23 -115 9 -9 9 -15 1 -23 -17 -17 -50 -1 -57 26 -5 20 -12 23
-41 22 -29 -2 -32 -4 -19 -14 9 -6 11 -14 5 -17 -5 -4 -12 -2 -15 3 -7 10 -46
3 -46 -9 0 -5 10 -6 23 -4 20 4 21 4 2 -5 -11 -5 -29 -12 -40 -16 -12 -4 -15
-9 -8 -12 8 -3 10 -15 7 -32 -4 -19 -1 -30 8 -34 11 -4 14 1 10 19 -5 30 20
61 65 80 40 17 43 17 43 0 0 -8 -7 -16 -15 -20 -8 -3 -15 0 -15 6 0 6 -2 9 -5
7 -2 -3 0 -22 6 -42 7 -27 15 -37 29 -37 13 0 20 7 20 20 0 14 6 20 17 18 10
-2 22 7 29 20 15 31 27 13 22 -36 -3 -32 0 -37 20 -38 24 -1 30 11 10 19 -7 2
-10 7 -7 11 10 10 40 -5 32 -17 -3 -6 -1 -7 6 -3 9 6 9 11 0 22 -9 11 -8 14 4
14 8 0 17 -4 19 -10 2 -6 9 -6 17 0 12 7 13 11 1 24 -7 9 -15 14 -18 11 -3 -3
-16 2 -29 10 -24 16 -32 8 -11 -13 15 -15 4 -26 -18 -18 -11 4 -14 13 -11 27
3 12 0 22 -8 25 -14 6 -18 54 -4 54 5 0 9 -4 9 -9 0 -9 87 -7 96 2 2 2 -11 29
-29 60 -19 31 -37 54 -41 50 -3 -3 -6 -3 -6 1 0 11 41 45 68 56 16 7 22 16 18
28 -5 13 5 22 43 40 27 12 54 22 60 22 6 0 11 5 11 11 0 5 -4 8 -9 4 -5 -3
-12 -1 -16 5 -4 6 9 10 32 10 32 1 35 2 19 11 -13 8 -25 8 -45 -2 -14 -7 -33
-11 -41 -10 -13 2 -13 1 0 -8 13 -9 12 -12 -5 -25 -11 -9 -28 -16 -37 -16 -9
0 -20 -5 -23 -10 -4 -6 -11 -8 -16 -4 -6 4 -5 14 4 27 9 14 11 29 6 42 -8 20
-8 20 -8 0z m-55 -216 c9 -15 -17 -61 -32 -55 -7 3 -15 -2 -18 -11 -4 -9 -9
-14 -12 -11 -7 7 17 58 28 58 4 0 8 7 8 15 0 17 16 20 26 4z m34 -42 c0 -14
-20 -37 -32 -37 -12 0 -10 24 4 38 16 16 28 15 28 -1z"/>
<path d="M253 1642 c-9 -16 -8 -23 10 -40 l20 -21 -21 6 c-14 3 -22 1 -22 -7
0 -9 -4 -9 -12 -2 -19 15 -60 10 -80 -10 -11 -11 -13 -18 -6 -18 16 0 -8 -25
-25 -25 -7 -1 -11 -6 -10 -13 2 -7 -3 -12 -11 -12 -25 0 -58 -34 -51 -53 4 -9
11 -14 16 -11 5 3 7 9 4 14 -3 4 2 13 10 20 22 18 18 -3 -6 -34 -20 -25 -20
-26 -1 -26 12 0 24 11 32 30 22 52 107 110 213 144 26 8 59 24 74 35 14 12 35
21 47 22 21 0 21 1 1 9 -27 12 -37 12 -31 1 11 -18 -28 -22 -41 -5 -7 10 -13
13 -13 6 0 -11 -40 -10 -70 2 -9 4 -20 -2 -27 -12z"/>
<path d="M2940 1651 c13 -9 12 -12 -5 -25 -19 -15 -19 -15 4 -11 25 5 48 21
40 29 -2 2 -15 7 -29 10 -19 6 -21 5 -10 -3z"/>
<path d="M124 1642 c8 -14 -25 -25 -38 -12 -14 14 -26 12 -26 -5 0 -8 5 -15
12 -15 9 0 9 -3 0 -12 -13 -13 -42 5 -42 26 0 6 5 4 10 -4 8 -13 10 -12 10 3
0 12 -8 17 -27 16 -16 0 -22 -3 -15 -6 6 -2 12 -13 12 -23 0 -10 5 -22 10 -25
6 -4 8 -11 4 -16 -3 -6 3 -5 14 2 18 11 24 10 41 -5 20 -18 20 -18 16 4 -6 30
15 49 59 52 47 3 41 22 -8 26 -23 2 -36 -1 -32 -6z"/>
<path d="M2688 1629 c17 -12 32 -24 32 -27 0 -4 9 -18 20 -32 l20 -25 -2 29
c-2 19 -10 32 -25 39 -12 5 -20 14 -17 18 3 5 -1 6 -9 3 -8 -3 -18 -1 -22 5
-3 6 -12 11 -18 11 -7 0 3 -10 21 -21z"/>
<path d="M470 1630 c0 -7 -8 -9 -19 -5 -15 4 -35 -12 -87 -70 -38 -41 -74 -75
-80 -75 -6 0 -23 -22 -38 -50 -34 -62 -28 -65 9 -5 34 53 68 63 190 55 44 -3
118 -3 163 0 46 3 85 3 87 0 6 -10 65 -10 65 0 0 5 -11 10 -25 10 -28 0 -31 9
-12 29 10 11 9 12 -1 7 -7 -4 -20 -2 -28 5 -8 6 -17 9 -21 5 -3 -3 -1 -6 5 -6
6 0 9 -7 6 -15 -5 -11 -10 -13 -19 -5 -9 8 -14 7 -18 -2 -3 -7 -6 -8 -6 -2 -1
6 -14 9 -31 6 -18 -3 -30 0 -30 7 0 11 13 15 40 11 11 -1 12 1 4 10 -13 14
-54 -3 -54 -21 0 -6 -7 -9 -15 -5 -8 3 -21 -2 -30 -10 -13 -14 -15 -14 -15 0
0 9 -11 18 -25 22 -14 3 -25 10 -25 16 0 5 -8 7 -17 4 -10 -3 -22 -2 -28 2
-16 12 -16 32 0 32 8 0 15 -5 15 -11 0 -5 5 -7 11 -4 6 5 4 11 -7 19 -15 12
-15 13 -1 19 9 3 19 2 22 -3 4 -6 17 -10 31 -10 14 0 23 4 19 10 -3 5 -13 6
-23 3 -14 -6 -15 -4 -4 9 9 11 10 18 2 23 -5 3 -10 1 -10 -5z m-55 -100 c4 -6
11 -8 16 -5 5 4 9 2 9 -3 0 -15 -48 -11 -54 4 -6 16 20 19 29 4z"/>
<path d="M2950 1583 c-25 -32 -43 -58 -41 -58 2 0 -1 -11 -9 -25 l-12 -25 20
20 c39 37 52 46 72 48 17 1 20 9 20 49 0 26 -1 48 -3 48 -1 0 -22 -26 -47 -57z
m35 -2 c-3 -11 -19 -27 -36 -35 l-30 -15 32 40 c33 41 45 45 34 10z"/>
<path d="M1610 1585 c-22 -15 -43 -21 -58 -18 -24 6 -62 -20 -62 -42 0 -11 53
-64 127 -125 17 -14 35 -24 42 -22 6 2 15 -8 21 -23 15 -39 12 -43 -11 -15
-14 16 -19 19 -15 8 7 -22 -3 -23 -18 -4 -6 8 -29 16 -51 18 -44 4 -57 21 -75
93 -9 38 -12 40 -47 41 -21 1 -68 2 -105 4 -49 2 -74 -2 -92 -14 -14 -9 -45
-17 -68 -17 -27 -1 -8 -5 47 -11 64 -7 90 -7 93 1 2 6 27 11 58 11 34 0 53 -4
49 -10 -3 -5 -18 -10 -33 -11 -23 0 -24 -2 -8 -8 18 -7 16 -9 -13 -24 -19 -10
-44 -14 -57 -11 -19 5 -24 2 -24 -12 0 -15 2 -16 9 -5 9 14 31 7 31 -10 0 -5
-9 -17 -20 -26 -11 -10 -20 -23 -20 -30 0 -7 -8 -13 -17 -14 -10 0 -13 -3 -6
-5 13 -6 6 -35 -11 -46 -7 -5 -6 -8 3 -8 11 0 11 -3 1 -15 -7 -9 -10 -18 -6
-22 9 -9 27 17 72 108 21 43 44 79 49 79 13 0 65 48 65 60 0 6 5 10 10 10 6 0
10 -9 10 -20 0 -11 4 -20 8 -20 5 0 16 -17 24 -39 10 -23 26 -44 44 -52 15 -8
29 -21 31 -29 3 -11 1 -11 -10 3 -21 26 -27 21 -14 -13 11 -29 27 -41 27 -20
0 6 9 10 20 10 10 0 31 5 45 12 22 10 27 9 40 -8 8 -10 15 -14 15 -9 0 6 -5
16 -12 23 -9 9 -9 12 3 13 7 1 18 1 22 0 5 -1 6 3 2 9 -3 6 -10 8 -15 5 -4 -3
-11 2 -14 11 -5 12 -2 15 10 10 8 -3 20 -6 25 -6 5 0 9 -7 9 -15 0 -18 35 -12
83 12 38 19 47 9 10 -10 -24 -13 -25 -16 -10 -22 25 -10 46 1 57 30 8 21 14
25 32 19 12 -3 31 -15 42 -25 11 -11 30 -19 42 -19 12 0 29 -3 38 -6 9 -3 16
-1 16 5 0 6 -11 11 -24 11 -14 0 -27 4 -30 8 -3 5 8 6 24 4 24 -3 29 0 32 19
l3 24 23 -22 c27 -28 36 -29 63 -2 15 15 18 24 10 33 -6 7 -12 25 -13 40 -2
24 -6 27 -35 23 -23 -4 -33 -1 -33 9 0 10 8 12 30 8 19 -4 30 -2 30 5 0 6 -11
11 -25 11 -14 0 -25 4 -25 9 0 13 -39 21 -47 9 -3 -6 -1 -8 4 -5 6 4 13 -2 16
-14 4 -16 3 -18 -8 -9 -10 8 -15 8 -20 -1 -4 -6 -2 -15 5 -19 6 -4 11 -10 10
-14 -1 -4 1 -12 3 -19 4 -9 7 -9 18 1 16 15 33 16 23 0 -4 -7 -3 -8 4 -4 7 4
12 2 12 -4 0 -6 5 -8 10 -5 8 5 7 12 -2 23 -11 13 -11 14 1 11 41 -14 7 -59
-44 -59 -19 0 -37 5 -40 10 -3 6 -12 10 -18 10 -7 0 -6 -4 3 -10 11 -7 0 -10
-40 -12 -65 -2 -113 -5 -120 -8 -3 -1 -37 -3 -77 -4 -50 -2 -70 0 -66 8 22 37
58 76 75 82 14 4 17 9 9 14 -14 8 -106 -7 -134 -21 -12 -7 -21 -6 -30 3 -21
23 -34 52 -30 66 8 23 30 12 37 -18 5 -28 26 -43 26 -19 0 5 5 7 10 4 6 -3 10
-2 10 4 0 5 -4 13 -10 16 -5 3 -10 26 -10 51 0 24 -3 44 -7 43 -5 0 -24 -11
-43 -24z m-41 -70 c7 -19 24 -49 38 -65 44 -53 19 -42 -36 15 -45 46 -51 57
-41 70 18 22 25 19 39 -20z"/>
<path d="M2123 1603 c-7 -3 -13 -11 -13 -19 0 -8 6 -11 15 -8 8 4 15 1 15 -5
0 -6 -8 -11 -17 -12 -10 0 -13 -3 -6 -5 7 -3 19 -2 27 3 12 6 12 12 3 29 -7
12 -18 19 -24 17z"/>
<path d="M1297 1571 c-17 -6 -17 -8 2 -25 16 -15 21 -16 21 -5 1 10 4 9 14 -4
14 -19 33 -7 21 13 -3 6 -1 10 6 10 7 0 10 3 7 6 -9 9 -52 12 -71 5z"/>
<path d="M2466 1561 c-3 -5 14 -11 39 -13 51 -4 60 6 14 16 -41 8 -47 8 -53
-3z"/>
<path d="M7 1547 c-13 -33 -8 -43 23 -45 21 -2 30 2 30 12 0 23 -17 28 -26 8
-6 -14 -8 -11 -13 13 -5 25 -8 27 -14 12z"/>
<path d="M2081 1525 c19 -14 44 -28 56 -31 12 -4 20 -11 17 -19 -3 -7 -1 -16
4 -19 6 -3 13 6 17 21 4 18 1 31 -11 42 -9 9 -14 10 -10 4 10 -18 -12 -16 -31
3 -9 8 -22 13 -29 10 -8 -3 -14 -1 -14 4 0 6 -8 10 -17 10 -11 0 -5 -8 18 -25z"/>
<path d="M2951 1511 c-27 -27 -19 -42 20 -39 16 1 29 3 29 4 0 1 -6 14 -14 29
l-14 27 -21 -21z"/>
<path d="M2435 1510 c-4 -6 -1 -9 7 -8 7 2 14 -7 16 -19 2 -13 8 -23 14 -23 6
0 8 -10 4 -24 -5 -20 -3 -23 13 -19 13 3 21 -4 31 -27 7 -17 21 -35 31 -40 17
-10 17 -8 3 27 -17 42 -92 143 -105 143 -4 0 -11 -5 -14 -10z"/>
<path d="M2540 1490 c0 -13 24 -18 53 -13 40 8 32 21 -13 21 -22 0 -40 -3 -40
-8z"/>
<path d="M2839 1464 c-6 -8 -9 -17 -5 -21 3 -3 6 -1 6 5 0 7 5 12 10 12 6 0
10 -14 10 -31 0 -27 2 -30 15 -19 10 9 12 17 6 23 -5 5 -7 15 -5 22 8 19 -23
26 -37 9z"/>
<path d="M864 1459 c-4 -8 61 -12 111 -8 11 1 48 2 83 1 34 0 62 4 62 8 0 11
-249 10 -256 -1z"/>
<path d="M2173 1438 c-12 -18 -21 -33 -19 -35 1 -2 19 4 39 12 30 12 37 13 37
2 0 -7 -5 -18 -12 -25 -9 -9 -9 -12 0 -12 21 0 26 49 7 70 -24 26 -26 25 -52
-12z"/>
<path d="M505 1449 c-17 -6 -66 -7 -112 -4 -50 4 -83 2 -83 -3 0 -6 -7 -9 -16
-8 -9 0 -19 -4 -21 -11 -4 -12 21 -12 33 0 4 4 57 7 117 7 93 0 112 -3 123
-17 12 -16 13 -15 4 9 l-9 28 92 -7 c51 -3 90 -3 87 -1 -10 11 -186 16 -215 7z"/>
<path d="M743 1452 c9 -2 15 -8 12 -13 -8 -12 2 -11 55 5 l45 14 -65 -1 c-36
-1 -57 -3 -47 -5z"/>
<path d="M2895 1440 c-3 -5 0 -7 8 -4 8 3 18 1 22 -5 3 -7 -3 -11 -15 -11 -12
0 -19 -4 -16 -9 4 -5 0 -12 -6 -14 -10 -4 -10 -6 1 -6 17 -1 72 45 64 53 -10
10 -51 7 -58 -4z"/>
<path d="M3 1421 c-1 -13 4 -18 15 -17 24 4 28 36 5 36 -11 0 -19 -8 -20 -19z"/>
<path d="M1109 1421 c11 -7 7 -10 -15 -14 -24 -3 -22 -4 11 -6 22 0 56 -6 75
-12 19 -6 50 -10 68 -10 27 0 32 -3 32 -22 0 -16 -3 -19 -9 -8 -7 11 -12 11
-31 -2 -17 -12 -28 -13 -43 -6 -13 8 -22 8 -30 0 -17 -17 40 -38 64 -23 10 7
25 12 32 12 8 0 22 10 33 23 10 12 15 19 11 16 -5 -4 -20 4 -34 17 -21 20 -33
23 -62 18 -34 -6 -35 -6 -16 10 19 16 19 16 -8 4 -23 -9 -30 -9 -37 1 -6 11
-9 11 -13 0 -4 -10 -6 -10 -6 -1 -1 6 -9 12 -18 12 -15 0 -15 -2 -4 -9z"/>
<path d="M2821 1418 c0 -9 -4 -24 -8 -34 -4 -11 -2 -15 4 -11 5 4 19 -1 29 -9
10 -9 13 -12 6 -9 -8 4 -12 2 -11 -6 5 -23 -12 -59 -27 -59 -14 0 -19 -16 -16
-55 4 -41 13 -66 23 -59 8 4 8 1 1 -12 -5 -11 -6 -28 -1 -39 4 -11 8 -14 8 -7
1 6 8 12 18 12 15 0 15 -1 0 -18 -19 -21 -22 -37 -5 -26 7 5 8 3 4 -5 -5 -7
-5 -28 -1 -47 4 -26 11 -34 24 -32 10 2 24 -2 32 -9 12 -10 15 -4 15 33 1 36
-1 42 -12 33 -8 -6 -12 -15 -9 -19 3 -4 -2 -11 -10 -14 -13 -5 -14 -2 -4 15
14 28 3 37 -17 13 -15 -19 -15 -19 -10 1 17 66 17 73 2 88 -9 8 -16 22 -16 29
0 8 -5 19 -11 25 -8 8 -6 15 9 24 16 10 18 17 11 32 -14 26 -2 77 17 70 23 -9
16 26 -10 50 -13 12 -26 31 -29 42 -3 15 -5 16 -6 3z"/>
<path d="M1446 1352 c-16 -37 -37 -84 -47 -105 -17 -37 -17 -37 4 -48 19 -9
20 -8 6 3 -13 11 -14 17 -5 29 14 19 36 13 36 -9 0 -10 9 -34 20 -55 16 -29
18 -42 10 -57 -7 -13 -7 -31 -1 -52 7 -25 9 -28 10 -11 1 27 32 93 43 93 5 0
17 14 27 31 18 30 18 69 -1 69 -5 0 -7 4 -4 8 7 12 -39 134 -47 126 -4 -4 -7
5 -7 19 0 43 -13 31 -44 -41z m68 -47 c8 -25 13 -52 9 -60 -3 -8 0 -15 6 -15
6 0 11 -9 11 -21 0 -15 -5 -19 -15 -15 -10 4 -15 -1 -15 -15 0 -30 -17 -14
-45 41 -23 45 -23 51 -11 82 27 63 39 63 60 3z"/>
<path d="M970 1399 c0 -10 27 -19 58 -19 15 0 36 -7 46 -15 32 -24 42 -17 11
7 -27 21 -115 42 -115 27z"/>
<path d="M2947 1379 c-16 -28 -19 -30 -30 -15 -10 14 -12 11 -12 -21 0 -21 6
-43 14 -49 8 -6 11 -16 7 -22 -4 -7 -1 -12 7 -12 10 0 13 8 9 27 -4 23 -2 25
16 21 24 -7 51 16 29 25 -7 3 -21 -1 -31 -9 -11 -7 -23 -11 -28 -8 -13 9 23
33 50 34 12 0 22 5 22 11 0 6 -9 8 -20 4 -23 -7 -28 13 -8 33 7 7 8 12 3 12
-6 0 -18 -14 -28 -31z"/>
<path d="M295 1390 c-4 -6 -11 -7 -17 -4 -6 4 -8 2 -4 -4 3 -6 -2 -13 -11 -15
-16 -4 -16 -5 -1 -6 9 0 24 6 32 15 9 8 16 11 16 7 0 -5 18 -10 40 -11 22 -2
40 1 40 7 0 5 -15 9 -34 9 -19 0 -39 3 -45 6 -5 4 -12 2 -16 -4z"/>
<path d="M772 1386 c17 -17 60 -16 64 2 1 7 0 8 -2 3 -3 -6 -17 -6 -37 0 -41
12 -41 12 -25 -5z"/>
<path d="M680 1381 c-35 -7 -35 -7 13 -12 27 -2 54 -1 60 3 9 6 9 8 0 8 -6 0
-17 2 -25 4 -7 2 -29 0 -48 -3z"/>
<path d="M965 1354 c41 -9 100 -28 112 -36 6 -5 25 -3 44 5 27 11 30 14 16 20
-11 4 -16 3 -12 -3 9 -15 -38 -12 -78 5 -20 8 -51 14 -69 14 -19 -1 -24 -3
-13 -5z"/>
<path d="M2497 1324 c3 -9 -3 -21 -16 -30 -11 -8 -21 -25 -20 -37 l0 -22 9 21
c9 24 36 38 45 24 3 -5 -4 -23 -16 -39 -12 -16 -19 -35 -16 -43 4 -9 6 -7 6 5
1 19 16 23 26 7 3 -5 1 -10 -4 -10 -6 0 -11 -5 -11 -11 0 -7 10 -9 25 -7 24 5
37 -4 41 -27 1 -5 5 -19 9 -30 6 -18 5 -18 -13 3 -11 12 -24 22 -29 22 -6 0
-35 18 -65 40 l-55 39 -39 -20 c-21 -10 -44 -17 -51 -15 -7 3 -12 0 -10 -6 1
-6 -4 -13 -10 -15 -8 -3 -13 4 -13 16 0 12 -4 21 -8 21 -5 0 -7 -13 -4 -30 4
-25 1 -30 -17 -30 -12 0 -32 11 -44 23 -23 25 -67 42 -67 26 0 -5 9 -26 20
-46 11 -21 20 -33 20 -28 0 6 11 12 25 13 14 1 25 -3 25 -9 0 -8 5 -7 15 1 12
10 15 10 15 -4 0 -9 5 -16 11 -16 6 0 8 -9 4 -20 -4 -12 -2 -20 5 -20 6 0 8 5
5 10 -3 6 -1 10 5 10 6 0 9 14 7 35 -3 28 0 38 20 50 13 9 32 14 41 12 15 -3
14 -5 -3 -12 -20 -8 -35 -24 -35 -36 0 -4 12 -9 26 -12 21 -4 25 -1 21 13 -2
9 2 25 9 35 8 10 14 14 14 9 0 -6 -5 -15 -11 -21 -8 -8 -8 -13 0 -17 6 -4 11
-2 11 4 0 6 3 9 8 6 4 -2 16 2 27 10 10 8 14 14 9 14 -6 0 -15 -5 -21 -11 -7
-7 -10 -3 -10 15 0 32 7 32 38 4 14 -13 38 -29 54 -37 l30 -13 -22 -15 c-13
-9 -23 -23 -23 -32 0 -13 2 -14 9 -2 8 13 14 13 38 2 28 -13 28 -13 9 8 -24
26 -12 27 20 2 l24 -19 -30 -14 c-33 -14 -35 -20 -20 -49 7 -12 7 -19 1 -19
-5 0 -13 9 -16 21 l-7 21 -24 -23 c-24 -22 -35 -14 -12 9 7 7 8 12 2 12 -6 0
-19 -9 -29 -20 -19 -21 -35 -18 -35 8 0 12 3 13 11 5 9 -9 17 -6 30 12 27 33
23 43 -5 16 -21 -19 -25 -20 -38 -7 -8 8 -20 11 -27 6 -10 -5 -9 -9 3 -13 26
-10 18 -33 -14 -43 l-29 -9 49 -16 c27 -8 47 -13 45 -10 -4 7 17 25 33 28 7 2
12 -1 12 -5 0 -19 43 -53 61 -49 11 3 17 2 14 -3 -2 -4 4 -15 15 -25 20 -18
29 -8 11 11 -5 5 -11 20 -13 34 -2 14 -8 24 -13 23 -15 -2 -12 52 4 70 14 18
51 23 51 8 0 -5 -7 -14 -16 -21 -21 -18 -41 -55 -23 -45 8 5 10 4 5 -3 -9 -16
7 -15 22 0 17 17 15 28 -5 21 -17 -5 -17 -5 -1 12 17 18 44 12 32 -7 -4 -6 -2
-8 3 -5 16 10 24 -22 12 -45 -10 -18 -9 -20 6 -14 15 5 16 4 5 -9 -10 -12 -10
-15 4 -15 19 0 21 21 4 38 -8 8 -8 12 -1 12 20 0 37 -30 25 -42 -17 -17 -15
-28 3 -22 27 11 16 -11 -15 -28 -17 -9 -30 -23 -30 -30 0 -10 2 -10 9 1 5 7
14 10 20 7 6 -4 11 -2 11 3 0 6 5 11 10 11 7 0 7 -6 0 -19 -14 -28 -13 -46 3
-34 18 15 70 26 62 13 -3 -5 -13 -10 -21 -10 -8 0 -13 -4 -10 -9 3 -5 16 -7
29 -4 17 4 19 3 7 -6 -13 -9 -13 -12 1 -26 19 -20 59 -28 59 -12 0 7 -18 31
-40 55 -22 24 -40 46 -40 50 0 4 -11 19 -24 34 -14 14 -23 28 -20 31 3 2 -13
31 -36 63 -23 32 -36 60 -30 62 19 7 10 22 -11 19 -14 -1 -24 6 -30 21 -8 21
-7 22 14 11 22 -12 22 -12 3 9 -10 11 -16 26 -14 33 2 7 14 -4 27 -24 12 -20
28 -37 34 -37 8 0 7 3 -2 9 -10 6 -11 13 -2 29 14 27 14 39 -1 24 -17 -17 -29
-15 -22 3 5 11 -1 15 -20 15 -20 0 -26 -5 -27 -22 0 -22 -1 -22 -8 -3 -14 34
-20 95 -10 95 9 0 13 -14 9 -40 -1 -12 1 -13 11 -2 21 20 35 14 88 -38 54 -53
67 -61 56 -32 -5 14 -4 15 6 5 10 -10 10 -16 2 -24 -13 -13 -6 -42 8 -33 13 8
-2 -27 -23 -55 -10 -13 -18 -31 -18 -39 0 -13 2 -13 13 2 8 11 21 16 33 13 18
-5 17 -5 -3 -12 -16 -5 -22 -14 -21 -30 1 -13 5 -22 8 -20 4 2 14 -5 24 -16 9
-11 22 -18 29 -16 12 4 13 49 1 76 -4 9 -6 24 -5 34 1 9 -3 17 -9 17 -6 0 -9
4 -6 8 9 15 -15 100 -34 117 -10 9 -16 23 -13 31 4 10 -4 14 -32 14 -38 0 -98
29 -124 59 -10 12 -15 13 -18 4 -7 -20 -23 -15 -23 8 0 11 5 17 10 14 22 -14
8 3 -20 23 -22 16 -28 18 -23 6z m36 -334 c15 -25 16 -30 3 -30 -17 0 -48 39
-40 52 9 14 19 9 37 -22z"/>
<path d="M284 1318 c-15 -4 -31 -5 -36 -2 -10 6 -38 -14 -38 -26 0 -7 63 4
100 17 8 3 47 5 85 4 39 0 77 3 85 9 18 11 -153 10 -196 -2z"/>
<path d="M958 1321 c8 -4 14 -12 14 -16 0 -4 -6 -12 -14 -16 -10 -7 -9 -9 4
-9 10 0 15 -5 12 -13 -5 -13 52 -296 61 -306 3 -2 4 44 2 102 -1 80 1 107 11
107 9 0 11 -31 10 -127 l-3 -127 41 -4 c32 -2 43 1 48 15 4 10 2 19 -3 21 -7
2 -5 10 4 19 8 8 12 19 9 24 -3 6 -3 41 1 79 5 52 11 70 23 72 10 2 -28 15
-82 29 -55 13 -101 30 -104 37 -2 7 4 12 14 12 16 0 16 1 -2 14 -17 13 -14 14
25 5 24 -5 46 -8 48 -5 3 3 -11 8 -31 11 -20 4 -39 11 -42 17 -3 5 5 6 20 2
14 -3 39 -2 55 4 21 7 32 7 41 -1 10 -9 12 -8 6 7 -6 17 -2 18 36 13 38 -5 40
-4 20 7 -12 6 -19 16 -15 21 4 4 -1 5 -12 0 -11 -4 -27 -8 -35 -9 -8 -1 -25
-8 -37 -14 -31 -17 -44 -15 -85 13 -20 14 -41 25 -45 25 -4 0 -2 -4 5 -9z
m137 -171 c-3 -5 2 -10 12 -10 19 0 20 -5 24 -125 0 -5 -2 -19 -5 -30 -2 -11
-5 -26 -5 -34 -1 -11 -4 -11 -16 -1 -13 11 -14 10 -9 -5 5 -13 3 -16 -7 -13
-10 3 -15 28 -17 94 -3 96 3 134 19 134 6 0 7 -4 4 -10z"/>
<path d="M658 1313 c-10 -2 -18 -9 -18 -14 0 -5 -9 -4 -20 3 -17 11 -22 10
-29 -1 -7 -11 -10 -11 -15 0 -5 11 -7 11 -12 2 -3 -7 -10 -13 -15 -13 -6 0 -8
4 -5 8 2 4 -4 8 -14 9 -10 1 -20 -7 -23 -18 -3 -10 -2 -17 2 -14 11 6 156 7
211 1 130 -14 155 -15 135 -6 -15 7 -10 9 23 6 26 -2 42 1 42 8 0 6 -20 12
-45 13 -35 2 -45 -1 -45 -13 0 -14 -2 -14 -15 -1 -20 20 -94 32 -108 18 -14
-14 -40 -15 -32 -1 4 6 11 7 17 4 7 -4 8 -2 4 4 -7 12 -9 13 -38 5z"/>
<path d="M2056 1304 c-9 -8 -16 -20 -16 -25 0 -6 -5 -7 -10 -4 -6 4 -8 11 -5
16 7 10 -18 13 -27 3 -3 -3 -3 -14 -1 -25 4 -14 12 -19 24 -16 15 4 16 2 6
-14 -9 -14 -9 -21 2 -31 11 -11 13 -11 6 0 -4 8 2 24 17 40 62 70 63 72 40 72
-11 0 -28 -7 -36 -16z"/>
<path d="M1730 1299 c0 -5 5 -7 12 -3 8 5 9 2 5 -10 -4 -10 -7 -21 -7 -24 0
-4 -5 0 -10 8 -8 11 -9 7 -4 -15 7 -29 6 -29 -12 -14 -13 11 -35 15 -72 14
-58 -3 -65 -6 -57 -26 4 -10 21 -14 53 -14 26 1 56 -5 67 -12 30 -20 48 -17
36 6 -13 22 9 57 30 48 10 -4 10 -6 -3 -6 -14 -1 -16 -6 -8 -25 5 -13 6 -27 2
-32 -4 -4 -1 -4 6 0 6 4 12 16 12 27 0 10 7 19 15 19 25 0 17 19 -10 26 -14 4
-24 9 -21 12 7 6 -13 32 -25 32 -5 0 -9 -5 -9 -11z"/>
<path d="M2607 1282 c-8 -10 -7 -16 4 -23 18 -11 52 -12 45 0 -3 4 12 8 33 8
28 0 38 -4 34 -12 -2 -7 0 -16 5 -19 18 -11 21 22 4 37 -23 20 -110 26 -125 9z"/>
<path d="M1346 1265 c4 -18 -2 -34 -24 -62 -16 -21 -33 -49 -37 -63 -4 -14
-16 -40 -27 -59 -10 -19 -17 -40 -14 -48 4 -9 -6 -21 -24 -31 -32 -18 -36 -27
-20 -37 13 -8 -6 -45 -31 -63 -11 -8 -16 -19 -12 -30 3 -10 2 -13 -3 -9 -5 5
-13 -6 -19 -23 -9 -28 -12 -29 -30 -17 -18 14 -18 16 -2 40 9 15 17 28 17 29
0 2 -16 3 -35 4 -27 0 -34 -3 -30 -14 3 -7 8 -25 11 -38 3 -13 10 -24 16 -24
5 0 6 -5 2 -12 -4 -7 -3 -8 4 -4 7 4 12 3 12 -3 0 -5 -5 -11 -11 -13 -11 -4
-4 -40 18 -98 4 -8 5 -20 4 -27 -1 -7 7 -9 19 -6 13 4 20 14 20 30 0 13 4 22
9 19 8 -5 22 64 15 72 -1 2 -12 -17 -23 -43 -12 -26 -25 -44 -31 -40 -14 9 -8
46 14 79 9 15 15 34 12 42 -3 8 -2 13 3 10 4 -3 22 26 40 65 20 43 36 67 43
63 7 -4 8 -3 4 4 -4 6 0 25 9 42 9 17 13 35 10 40 -3 5 4 14 15 20 11 6 20 17
20 25 0 8 9 30 21 49 12 20 17 36 13 36 -4 0 -1 6 8 13 20 16 40 75 27 82 -5
4 -7 11 -4 16 4 5 1 9 -5 9 -6 0 -8 -10 -4 -25z"/>
<path d="M2165 1274 c-11 -11 -13 -20 -5 -28 5 -7 7 -15 4 -18 -2 -3 1 -8 9
-11 11 -4 14 4 14 34 0 44 0 45 -22 23z"/>
<path d="M347 1255 c-20 -14 -37 -30 -37 -35 0 -6 -13 -10 -30 -10 -34 0 -40
-15 -9 -25 13 -4 27 -1 38 9 10 9 22 16 27 16 11 0 64 52 64 63 0 13 -15 7
-53 -18z"/>
<path d="M931 1261 c-11 -7 -11 -9 0 -14 11 -4 11 -6 1 -6 -7 -1 -10 -5 -7
-11 3 -5 1 -10 -4 -10 -6 0 -11 5 -11 11 0 7 -9 9 -22 5 -13 -4 -29 -8 -37
-10 -11 -2 -16 -21 -18 -65 -2 -35 0 -60 4 -58 4 3 7 -67 5 -155 -2 -90 1
-165 6 -170 6 -6 10 74 11 208 0 119 3 219 6 222 2 3 19 0 37 -6 31 -10 32
-11 11 -17 -20 -6 -23 -14 -23 -54 0 -25 -3 -82 -6 -127 l-7 -81 69 -6 c37 -4
69 -5 72 -3 2 2 -15 68 -37 146 -31 109 -38 147 -31 166 17 43 11 54 -19 35z
m14 -186 c7 -27 11 -53 9 -57 -3 -5 0 -8 6 -8 6 0 8 -4 5 -10 -3 -5 -1 -10 4
-10 13 0 15 -46 3 -54 -5 -3 -20 7 -33 22 -26 30 -34 97 -18 139 7 20 6 24 -4
20 -10 -4 -12 3 -9 26 5 31 5 31 14 7 6 -14 16 -47 23 -75z"/>
<path d="M710 1241 c0 -6 5 -13 12 -17 7 -5 -11 -13 -42 -20 -55 -12 -75 -10
-65 7 4 5 2 9 -2 9 -5 0 -14 -9 -21 -21 -13 -20 -14 -20 -34 -2 -20 18 -20 18
-17 -7 3 -28 -10 -75 -18 -66 -4 3 -11 -1 -17 -9 -15 -21 -56 -28 -56 -9 0 8
-7 14 -16 14 -14 0 -15 -2 -3 -17 13 -15 12 -15 -8 -5 -30 16 -38 32 -16 32
15 0 16 2 3 10 -12 8 -10 10 10 11 21 1 22 2 5 6 -15 4 -38 -14 -97 -78 -73
-79 -95 -122 -41 -79 14 11 34 20 45 20 15 0 17 5 12 25 -4 15 -2 25 5 25 6 0
11 7 11 15 0 19 19 19 45 -1 23 -17 63 -11 109 17 20 12 32 15 37 7 5 -7 17
-5 40 7 64 34 67 35 72 22 3 -9 9 -9 28 0 l24 12 -27 2 c-16 1 -34 2 -40 3 -7
1 -17 -1 -23 -5 -11 -8 -81 18 -72 27 3 3 15 0 28 -6 19 -11 21 -10 16 4 -7
18 8 32 18 16 7 -12 77 -5 106 10 20 11 26 30 8 30 -5 0 -7 5 -4 10 3 6 1 10
-4 10 -6 0 -11 -4 -11 -9z"/>
<path d="M137 1216 c-4 -11 -1 -41 7 -70 23 -80 30 -146 16 -146 -7 0 -9 -8
-5 -20 9 -28 -9 -25 -29 5 -15 22 -15 25 0 33 14 8 14 10 2 15 -11 4 -14 20
-12 64 3 42 1 51 -5 33 -5 -14 -9 -39 -10 -57 l-1 -32 -42 19 c-24 10 -45 16
-48 13 -3 -3 0 -8 7 -10 7 -2 10 -10 7 -18 -3 -7 -1 -16 5 -20 6 -3 11 2 11
12 0 14 9 9 35 -20 19 -21 35 -41 35 -45 0 -4 13 -16 30 -25 16 -10 33 -29 36
-43 3 -13 10 -24 14 -24 14 0 19 27 7 39 -6 6 -11 36 -12 68 -3 96 -17 213
-26 208 -4 -3 -9 5 -11 17 -3 21 -4 22 -11 4z"/>
<path d="M1819 1218 c-1 -7 -1 -17 0 -22 1 -5 -5 -6 -14 -3 -22 9 -18 -10 5
-23 11 -6 21 -9 21 -8 7 17 6 59 -2 63 -5 4 -10 0 -10 -7z"/>
<path d="M1857 1223 c-2 -5 -3 -20 -3 -36 1 -23 6 -30 19 -26 1 0 15 2 31 4
16 2 36 12 45 21 15 16 14 16 -4 9 -11 -4 -30 -9 -42 -10 -12 -2 -28 -6 -35
-10 -7 -3 -4 1 7 9 11 9 25 14 32 12 7 -3 15 -1 18 4 4 6 16 10 27 10 35 0 16
7 -39 14 -28 4 -53 3 -56 -1z"/>
<path d="M441 1196 c-37 -16 -23 -26 18 -11 22 7 43 10 47 7 4 -4 4 -2 0 5 -7
13 -34 13 -65 -1z"/>
<path d="M810 1200 c0 -7 -8 -9 -19 -5 -11 3 -22 1 -26 -5 -3 -5 0 -10 7 -10
15 -1 -8 -16 -32 -22 -8 -2 -25 -23 -37 -48 -13 -25 -45 -67 -72 -95 -26 -27
-59 -66 -74 -86 l-26 -36 42 4 c34 4 56 -3 122 -35 44 -22 82 -39 84 -36 2 2
-1 21 -9 43 -9 29 -10 43 -1 60 7 11 8 21 4 21 -4 0 -8 47 -8 104 0 57 3 102
8 99 4 -2 10 3 13 11 3 9 10 14 14 11 4 -3 13 2 19 9 8 10 9 16 1 21 -5 3 -10
1 -10 -5z m-50 -120 c0 -29 -4 -40 -15 -40 -16 0 -20 -12 -9 -23 4 -4 8 -33
10 -66 2 -42 -1 -63 -12 -72 -8 -7 -14 -7 -14 -1 0 9 -25 18 -80 29 -31 5 -39
13 -15 13 17 0 18 1 2 13 -16 11 -16 14 3 42 11 17 20 26 20 21 0 -6 6 -1 14
9 8 11 12 23 10 27 -3 5 7 8 21 8 21 0 25 4 20 19 -4 13 2 27 16 40 13 12 24
21 26 21 2 0 3 -18 3 -40z"/>
<path d="M2890 1196 c0 -10 9 -16 21 -16 24 0 21 23 -4 28 -10 2 -17 -3 -17
-12z"/>
<path d="M1576 1193 c-22 -22 45 -32 89 -13 18 8 18 9 -5 10 -14 1 -37 3 -52
5 -14 2 -29 1 -32 -2z"/>
<path d="M2002 1178 c13 -13 29 -21 36 -20 9 2 11 -1 7 -10 -6 -10 -5 -11 6 0
18 16 39 15 39 -3 0 -8 -6 -12 -14 -9 -13 5 -31 -24 -21 -34 3 -3 5 0 5 5 0 6
8 10 18 9 19 -3 46 29 37 44 -4 6 -11 8 -16 5 -5 -4 -9 -1 -9 5 0 6 -5 8 -11
4 -22 -13 -54 -9 -67 8 -7 10 -17 18 -23 18 -5 0 1 -10 13 -22z"/>
<path d="M1219 1137 c-2 -31 -1 -57 2 -57 11 0 15 33 9 75 -6 39 -6 38 -11
-18z"/>
<path d="M478 1166 c-19 -8 -24 -16 -19 -25 5 -8 11 -9 15 -3 3 6 16 8 29 5
18 -4 19 -3 7 6 -13 9 -13 11 3 11 9 0 17 5 17 10 0 13 -18 12 -52 -4z"/>
<path d="M1360 1165 c-2 -11 -2 -23 -1 -27 0 -5 -3 -8 -9 -8 -24 0 -7 -19 23
-25 17 -4 40 -9 51 -12 11 -3 16 -1 12 5 -3 6 -20 13 -37 17 -17 4 -28 12 -26
18 2 7 1 21 -4 32 -8 20 -8 20 -9 0z"/>
<path d="M1675 1168 c-25 -13 -134 -106 -157 -133 -11 -13 -17 -36 -16 -65 0
-25 3 -35 5 -22 4 19 20 27 46 23 4 0 7 6 7 14 0 8 -3 14 -7 14 -5 -1 -16 -1
-26 0 -17 1 -17 2 -2 17 11 12 19 13 29 5 7 -6 17 -7 21 -3 5 4 5 -1 2 -11 -4
-11 -3 -16 3 -12 6 3 10 15 10 26 0 10 6 19 13 19 8 0 7 4 -3 10 -13 8 -12 10
3 10 14 0 16 5 11 25 -4 15 -2 25 4 25 6 0 16 -25 22 -55 6 -30 14 -55 17 -55
3 0 2 11 -1 25 -4 14 -2 25 4 25 5 0 10 -9 10 -20 0 -14 9 -21 38 -25 20 -3
46 -8 57 -10 11 -2 27 0 35 6 12 8 11 10 -5 8 -33 -2 -49 1 -41 8 4 4 23 6 42
4 29 -2 36 1 41 19 3 12 11 19 19 16 9 -3 11 0 7 12 -6 16 -5 16 14 -1 11 -9
22 -16 24 -15 2 2 -2 -2 -9 -8 -10 -10 -8 -12 12 -10 34 1 33 24 -1 38 -27 11
-27 12 -5 16 12 2 19 8 16 14 -4 6 2 8 17 4 15 -4 12 0 -8 9 -31 14 -33 14
-70 -23 -22 -20 -43 -38 -48 -39 -41 -10 -84 -31 -78 -38 5 -5 0 -3 -9 4 -9 7
-23 9 -30 5 -7 -4 -10 -4 -6 1 4 4 1 23 -7 42 -23 55 -19 77 18 96 17 8 25 16
17 16 -8 0 -24 -5 -35 -11z"/>
<path d="M1955 1168 c-11 -7 -27 -18 -35 -26 -12 -13 -11 -14 9 -7 13 4 32 16
42 26 21 21 14 24 -16 7z"/>
<path d="M1764 1159 c-3 -5 -13 -9 -22 -8 -37 3 -39 -2 -10 -32 22 -21 34 -27
41 -20 8 8 5 11 -8 11 -17 1 -16 4 8 24 23 19 26 24 13 29 -8 3 -18 2 -22 -4z"/>
<path d="M2933 1157 c1 -36 -5 -47 -29 -53 -16 -4 -22 -9 -14 -14 15 -9 60 11
60 27 0 6 3 18 6 26 3 8 -1 17 -9 20 -8 3 -14 0 -14 -6z"/>
<path d="M1976 1137 c-18 -19 -18 -20 -1 -34 11 -7 25 -13 32 -13 7 0 13 -4
13 -8 0 -5 7 -9 15 -9 25 0 17 14 -12 22 -16 4 -22 9 -16 13 8 5 8 13 0 28
-12 20 -12 20 -31 1z"/>
<path d="M2137 1154 c-4 -4 -4 -18 0 -32 3 -15 1 -27 -8 -33 -12 -7 -12 -9 0
-9 8 0 22 -7 32 -16 17 -15 20 -15 45 5 30 24 27 26 -11 9 -20 -9 -28 -9 -38
1 -9 9 -7 13 11 17 l22 6 -25 20 c-14 11 -23 24 -20 29 7 10 1 12 -8 3z"/>
<path d="M2445 1139 c-5 -14 -2 -25 6 -30 11 -7 11 -9 1 -9 -7 0 -15 7 -18 15
-7 16 -34 21 -34 5 0 -5 -10 -19 -22 -30 l-23 -22 25 4 c14 2 24 9 23 16 -4
17 8 15 21 -3 17 -23 53 4 41 31 -4 10 -7 25 -6 32 3 20 -7 14 -14 -9z"/>
<path d="M2981 1104 c0 -16 4 -38 9 -49 5 -14 7 -8 6 22 -2 47 -16 73 -15 27z"/>
<path d="M2325 1083 c0 -14 5 -28 11 -30 16 -5 26 40 11 49 -19 12 -23 10 -22
-19z"/>
<path d="M2681 1084 c-17 -14 -28 -30 -25 -36 3 -5 13 1 22 14 9 13 23 28 32
35 8 7 12 13 8 13 -3 0 -20 -12 -37 -26z"/>
<path d="M530 1081 c-8 -6 -18 -7 -24 -4 -5 3 -6 1 -2 -5 6 -11 -12 -17 -36
-13 -12 2 -9 -12 8 -34 10 -13 14 -38 13 -70 -1 -27 2 -50 7 -50 5 0 8 5 6 11
-1 7 5 15 14 18 15 6 15 8 1 24 -15 16 -19 70 -7 82 15 15 43 50 39 50 -2 0
-11 -4 -19 -9z"/>
<path d="M1920 1081 c0 -5 7 -12 16 -15 9 -3 14 -13 11 -21 -4 -9 -1 -12 8 -8
8 3 13 9 10 13 -3 4 3 11 12 14 15 6 15 8 3 16 -19 12 -60 13 -60 1z"/>
<path d="M1441 1073 c-1 -7 -10 -13 -21 -13 -11 0 -20 -4 -20 -10 0 -5 7 -10
15 -10 8 0 15 -6 16 -12 0 -7 5 -2 10 11 5 13 8 29 5 35 -3 7 -5 6 -5 -1z"/>
<path d="M2065 1060 c-3 -5 -18 -8 -33 -6 -15 2 -19 1 -9 -1 9 -2 17 -8 17
-13 0 -4 9 -6 20 -3 12 3 20 0 20 -6 0 -7 -5 -9 -12 -5 -7 4 -8 3 -4 -5 4 -6
12 -9 17 -6 5 4 12 -1 15 -9 3 -9 10 -13 16 -10 5 3 4 12 -4 22 -11 14 -10 15
6 9 16 -6 17 -5 6 8 -7 8 -21 15 -32 15 -10 0 -16 5 -13 10 3 6 4 10 1 10 -3
0 -8 -4 -11 -10z"/>
<path d="M2242 1034 l-23 -11 28 -6 c33 -7 68 17 36 25 -10 2 -28 -1 -41 -8z"/>
<path d="M389 1017 c12 -15 11 -17 -6 -17 -10 0 -28 -7 -39 -15 -18 -14 -16
-15 21 -11 34 3 40 7 40 26 0 13 -7 26 -15 28 -13 5 -13 3 -1 -11z"/>
<path d="M2973 1007 c1 -7 -4 -11 -10 -9 -18 3 -16 -19 3 -43 16 -20 16 -20
12 1 -2 11 3 28 10 36 10 13 10 17 -3 21 -8 4 -14 1 -12 -6z"/>
<path d="M1603 1004 c3 -4 2 -15 -4 -26 -9 -16 -6 -18 20 -16 16 1 27 6 25 10
-3 5 -11 5 -17 1 -8 -4 -8 -2 1 9 10 13 10 17 -4 22 -20 8 -29 8 -21 0z"/>
<path d="M1825 1000 c3 -6 1 -10 -4 -10 -6 0 -10 -3 -10 -7 3 -20 -2 -24 -15
-14 -19 16 -54 22 -62 10 -3 -5 0 -8 7 -7 6 2 13 -2 16 -9 4 -12 -26 -11 -46
2 -5 3 -13 0 -16 -6 -4 -5 -14 -8 -22 -5 -8 3 -11 1 -8 -4 3 -6 0 -10 -8 -10
-8 0 -17 -7 -21 -15 -7 -18 -36 -9 -36 12 0 8 -4 11 -10 8 -5 -3 -10 -1 -10 5
0 7 -5 6 -13 -2 -17 -15 -11 -44 10 -52 11 -4 13 -2 9 9 -8 22 12 18 24 -5 7
-14 7 -20 0 -20 -6 0 -8 -10 -4 -26 6 -22 4 -25 -7 -19 -12 8 -12 6 0 -8 19
-24 23 -21 20 16 -2 22 1 31 10 29 7 -1 10 2 6 8 -3 5 -2 10 4 10 5 0 13 -5
16 -10 4 -6 11 -8 16 -5 5 4 9 3 9 -2 0 -4 11 -9 25 -9 26 -2 55 -20 55 -35 0
-14 -28 -11 -33 4 -4 10 -6 10 -6 0 -1 -7 -6 -13 -12 -13 -5 0 -8 4 -4 9 3 5
1 12 -5 16 -5 3 -10 2 -10 -4 0 -6 -6 -8 -14 -5 -8 3 -17 1 -21 -5 -4 -7 4
-11 19 -11 19 0 26 -5 26 -20 0 -12 7 -20 16 -20 14 0 15 2 3 17 -13 15 -10
16 32 10 l45 -6 -3 41 c-2 23 0 39 3 35 4 -4 13 -2 20 4 11 9 11 14 -2 26 -14
14 -18 14 -37 -6 -12 -11 -17 -21 -11 -21 5 0 10 -9 11 -20 2 -25 -9 -26 -24
-1 -7 10 -35 27 -63 36 -29 10 -48 20 -43 24 18 15 63 30 67 22 9 -14 68 0 62
15 -3 8 0 11 10 7 7 -3 14 -10 14 -15 0 -6 11 -7 25 -4 28 7 35 -8 9 -18 -9
-4 -14 -9 -11 -13 4 -3 18 2 31 11 31 20 50 21 42 1 -3 -10 3 -17 20 -21 30
-8 74 8 56 20 -7 4 -12 2 -12 -3 0 -6 -12 -11 -26 -11 -32 0 -27 22 7 31 21 6
19 7 -11 8 -19 0 -46 3 -60 5 -14 2 -30 5 -37 5 -7 1 -10 8 -6 17 4 10 9 12
16 5 5 -5 16 -7 24 -4 8 3 18 1 22 -6 4 -6 15 -9 24 -5 26 10 20 20 -13 22
-16 1 -41 7 -55 12 -17 7 -24 7 -20 0z"/>
<path d="M2126 994 c-3 -8 1 -22 9 -30 13 -14 18 -12 17 6 -1 8 47 5 55 -3 3
-4 1 -7 -5 -7 -7 0 -12 -4 -12 -9 0 -5 9 -7 20 -4 10 3 18 8 17 12 -1 3 2 7 7
8 5 1 12 7 16 13 6 10 18 9 54 -3 25 -9 48 -12 51 -7 7 12 -118 39 -129 29
-14 -13 -89 -11 -81 1 3 6 2 10 -3 10 -6 0 -13 -7 -16 -16z"/>
<path d="M2012 977 c-12 -13 -22 -33 -22 -45 0 -12 -11 -29 -25 -38 -14 -9
-25 -23 -25 -31 0 -13 -12 -14 -67 -9 -52 4 -61 3 -38 -4 17 -6 53 -10 80 -9
28 0 68 -3 89 -7 30 -5 37 -4 31 5 -6 10 -3 11 14 2 26 -14 28 0 2 23 -19 17
-71 14 -71 -5 0 -5 -7 -6 -15 -3 -12 5 -13 10 -4 20 6 8 18 14 26 14 8 0 12 4
9 9 -5 8 101 21 109 13 9 -9 -9 -40 -21 -35 -10 4 -12 0 -8 -11 7 -18 20 -21
29 -6 3 5 12 7 19 4 8 -3 27 1 43 10 l28 16 -32 -2 c-17 -1 -29 -6 -27 -10 3
-4 0 -8 -5 -8 -20 0 -11 25 11 35 41 19 32 32 -19 29 -64 -5 -85 2 -59 22 11
8 16 14 10 14 -5 0 -3 4 5 9 8 5 9 11 3 15 -6 3 -13 -3 -17 -14 -3 -11 -11
-20 -16 -20 -5 0 -9 -8 -9 -18 0 -10 -7 -19 -15 -19 -17 0 -14 35 4 47 8 4 12
13 10 19 -3 8 -13 3 -27 -12z"/>
<path d="M1476 975 c4 -8 1 -15 -5 -15 -6 0 -11 -13 -11 -30 0 -20 5 -30 15
-30 11 0 15 12 15 45 0 25 -4 45 -10 45 -5 0 -7 -7 -4 -15z"/>
<path d="M214 958 c3 -13 6 -29 6 -35 0 -7 9 -12 20 -10 29 5 37 17 11 17 -18
0 -22 4 -18 19 3 12 -1 22 -10 26 -12 4 -14 0 -9 -17z"/>
<path d="M2859 970 c-3 -8 0 -32 6 -53 10 -34 13 -37 24 -23 9 11 10 16 2 16
-6 0 -11 5 -11 10 0 6 6 10 14 10 15 0 16 24 1 37 -4 4 -5 2 -1 -4 4 -8 1 -13
-8 -13 -8 0 -16 8 -18 18 -3 14 -5 14 -9 2z"/>
<path d="M2295 937 c11 -26 19 -31 49 -33 34 -1 35 0 15 13 -16 12 -23 12 -35
2 -8 -7 -14 -8 -13 -3 4 23 -2 42 -15 47 -12 5 -13 1 -1 -26z"/>
<path d="M2391 943 c13 -17 27 -29 31 -27 4 3 9 0 13 -6 3 -6 -4 -10 -17 -11
-22 0 -22 -1 -3 -8 12 -5 23 -4 28 3 5 7 7 4 5 -8 -2 -14 -12 -20 -35 -21 -17
-1 -38 -7 -47 -14 -8 -7 -20 -10 -25 -7 -5 4 -12 2 -15 -3 -3 -5 8 -11 25 -13
16 -3 32 -1 35 4 7 11 54 10 54 -1 0 -5 -6 -12 -12 -14 -10 -4 -9 -8 2 -16 11
-8 17 -6 21 7 4 9 2 22 -3 29 -16 20 13 52 38 42 12 -4 25 -13 29 -19 4 -7 11
-8 18 -1 8 6 20 3 36 -10 15 -12 18 -19 9 -19 -8 0 -23 -7 -34 -16 -18 -14
-18 -15 4 -4 12 6 33 8 45 5 13 -4 17 -3 10 2 -7 5 -9 14 -3 22 8 15 -26 50
-53 55 -6 1 -23 8 -36 15 -14 8 -21 9 -17 2 9 -14 -5 -14 -39 -1 -14 5 -24 14
-21 19 7 11 -11 26 -43 36 l-25 7 25 -29z"/>
<path d="M2925 960 c-4 -6 1 -10 11 -10 13 0 14 -3 4 -15 -9 -11 -9 -15 -1
-15 7 0 10 -4 7 -9 -4 -5 0 -11 6 -14 7 -2 10 -8 6 -12 -5 -5 -17 0 -27 9 -19
17 -20 17 -30 -20 -6 -20 -7 -42 -4 -47 3 -6 1 -7 -6 -3 -9 6 -10 0 -5 -21 8
-34 15 -42 21 -25 3 6 12 12 21 12 10 0 13 -3 7 -8 -25 -18 -14 -31 24 -29 34
2 38 5 39 31 1 26 0 27 -14 10 -14 -18 -15 -17 -9 11 4 22 3 26 -4 15 -6 -8
-24 -15 -41 -16 -23 -1 -29 1 -21 9 6 6 11 19 11 28 0 22 36 34 55 19 20 -17
20 8 0 34 -8 11 -15 30 -15 42 0 23 -25 40 -35 24z"/>
<path d="M430 934 c0 -3 9 -17 20 -31 18 -23 20 -23 20 -6 0 10 -5 24 -12 31
-13 13 -28 16 -28 6z"/>
<path d="M2620 924 c-8 -8 -9 -14 -4 -13 22 4 26 -2 10 -14 -16 -12 -16 -15
-3 -26 13 -10 16 -9 22 8 3 12 11 21 16 21 5 0 9 5 9 10 0 6 -3 9 -7 9 -20 -3
-34 2 -28 11 10 16 -1 12 -15 -6z"/>
<path d="M1870 914 c0 -20 35 -62 44 -53 2 2 -7 20 -20 39 -20 28 -24 31 -24
14z"/>
<path d="M2257 923 c-45 -11 -77 -63 -39 -63 12 0 14 2 4 8 -20 13 21 45 47
37 16 -5 20 -3 15 9 -3 9 -7 15 -8 15 0 -1 -9 -3 -19 -6z"/>
<path d="M1516 912 c-15 -3 -16 -6 -5 -13 10 -6 10 -9 2 -9 -7 0 -13 -5 -13
-12 0 -6 3 -8 6 -5 10 10 44 -12 44 -28 0 -16 -30 -9 -42 9 -5 8 -8 7 -8 -1 0
-6 10 -19 22 -27 12 -9 17 -16 10 -16 -6 0 -12 -11 -12 -25 0 -14 5 -25 11
-25 6 0 8 9 4 20 -4 14 -2 20 7 18 9 -2 13 9 13 39 0 30 3 39 12 32 7 -7 13
-6 18 1 3 5 2 10 -4 10 -6 0 -18 8 -28 18 -10 10 -27 16 -37 14z"/>
<path d="M310 888 c0 -17 3 -19 12 -10 17 17 33 15 19 -2 -17 -21 9 -37 48
-30 17 4 31 10 31 13 0 7 -89 51 -103 51 -4 0 -7 -10 -7 -22z"/>
<path d="M1227 903 c-2 -4 -7 -57 -11 -118 -4 -60 -9 -137 -13 -170 -3 -33 -3
-57 1 -54 6 6 38 341 32 347 -2 2 -6 0 -9 -5z"/>
<path d="M933 893 c49 -3 57 -7 57 -23 0 -11 5 -20 10 -20 6 0 9 -13 8 -28 -1
-15 1 -33 6 -40 5 -8 0 -12 -14 -12 -12 0 -18 -5 -15 -10 4 -6 11 -7 17 -4 8
5 9 1 5 -10 -5 -12 -3 -16 5 -14 14 5 26 93 19 141 -3 27 -3 27 -80 25 -69 -2
-71 -2 -18 -5z"/>
<path d="M2808 888 c-4 -9 -1 -21 5 -26 19 -15 57 -24 57 -14 0 6 -11 13 -24
16 -14 3 -26 14 -28 24 -3 16 -4 16 -10 0z"/>
<path d="M53 882 c-9 -6 -7 -13 8 -26 19 -16 22 -16 38 -2 10 9 23 16 29 16 7
0 12 5 12 10 0 12 -69 13 -87 2z"/>
<path d="M1458 816 c-3 -66 -1 -74 15 -73 14 1 17 12 17 74 0 56 -3 73 -14 73
-11 0 -15 -18 -18 -74z"/>
<path d="M2281 883 c4 -25 -3 -35 -21 -30 -11 3 -20 1 -20 -5 0 -6 -19 -8 -46
-5 -37 3 -43 2 -32 -9 7 -7 31 -14 53 -16 42 -3 62 -17 42 -30 -9 -6 -9 -8 0
-8 6 0 15 5 18 10 8 13 -14 42 -26 34 -5 -3 -9 0 -9 5 0 6 11 10 25 9 14 -1
25 -7 25 -13 0 -5 5 -3 10 5 5 9 5 19 0 24 -4 4 -6 15 -3 22 3 8 0 14 -6 14
-6 0 -10 -3 -10 -7z"/>
<path d="M880 815 c0 -43 4 -67 14 -72 18 -11 46 -67 46 -93 0 -25 15 -26 29
-2 7 11 10 13 11 3 0 -8 7 -11 20 -8 10 3 21 0 24 -7 2 -6 5 -1 5 11 1 12 -3
24 -8 27 -5 3 -7 15 -4 26 3 11 0 20 -6 20 -6 0 -10 -3 -10 -7 4 -27 -4 -41
-26 -45 -18 -4 -25 -1 -26 11 -4 49 -8 63 -23 86 -9 14 -14 30 -11 35 3 6 0
10 -7 10 -10 0 -10 2 1 9 8 5 11 16 8 24 -3 8 0 20 6 26 8 8 4 11 -16 11 -27
0 -27 -1 -27 -65z"/>
<path d="M161 835 c-13 -13 -29 -21 -36 -19 -14 6 -28 -37 -17 -48 9 -9 102
47 102 61 0 24 -26 27 -49 6z"/>
<path d="M293 822 c-12 -16 -46 -45 -77 -66 -51 -34 -96 -79 -96 -96 0 -4 21
-10 48 -13 26 -3 55 -9 65 -12 23 -10 22 13 -3 40 -26 28 -17 60 18 63 15 1
29 7 31 14 2 6 19 28 37 48 28 31 31 39 18 44 -8 3 -17 6 -18 6 -1 0 -12 -13
-23 -28z"/>
<path d="M520 812 c0 -18 6 -32 16 -36 8 -3 12 -10 9 -16 -8 -13 -7 -13 62 5
31 8 78 15 103 16 l45 1 -75 24 c-41 13 -94 27 -117 30 -43 7 -43 6 -43 -24z
m95 -22 c-7 -12 -42 -12 -70 0 -15 6 -8 9 28 9 30 1 46 -3 42 -9z"/>
<path d="M1831 827 c-6 -8 -8 -17 -5 -20 13 -13 -61 -47 -88 -41 -16 3 -28 1
-28 -4 0 -6 8 -12 17 -14 16 -3 16 -5 -4 -25 -12 -12 -18 -24 -15 -28 4 -4 7
-19 8 -34 0 -27 0 -27 -28 -14 -30 15 -36 25 -15 22 24 -3 37 1 37 12 0 13
-59 5 -71 -10 -5 -6 -6 -9 -3 -6 7 4 34 -19 34 -29 0 -3 -7 -6 -15 -6 -8 0
-15 4 -15 10 0 5 -7 7 -16 3 -12 -4 -14 0 -8 21 4 17 2 26 -6 26 -6 0 -8 -5
-4 -11 3 -6 1 -15 -6 -19 -9 -6 -9 -13 -1 -28 6 -11 11 -33 11 -48 0 -20 3
-24 13 -16 6 6 35 13 62 15 64 7 65 7 35 18 -19 7 -15 8 17 4 35 -4 41 -2 37
10 -3 8 -11 13 -17 12 -18 -4 -33 51 -19 73 7 11 12 26 12 34 0 10 9 14 28 11
15 -2 33 -4 41 -4 8 -1 11 -8 8 -22 -3 -11 -1 -19 5 -17 5 2 9 7 9 11 -1 4 -1
16 -1 28 0 14 -5 19 -13 16 -8 -3 -14 1 -14 8 0 7 7 11 16 8 14 -4 14 -4 1 6
-12 9 -11 11 8 11 12 0 22 5 22 10 0 6 -4 10 -10 10 -5 0 -7 7 -4 15 8 19 0
19 -15 2z"/>
<path d="M2101 819 c-10 -17 -15 -19 -21 -8 -5 7 -12 10 -17 5 -4 -4 0 -12 10
-17 15 -9 16 -12 2 -25 -9 -9 -23 -13 -35 -9 -13 4 -20 2 -20 -7 0 -11 -2 -11
-9 0 -6 10 -15 7 -39 -13 -18 -15 -32 -33 -32 -41 0 -20 28 -18 32 2 2 10 22
22 48 30 45 13 66 10 40 -6 -12 -7 -12 -12 -3 -21 13 -13 18 -6 25 36 2 11 9
21 16 21 35 4 37 5 27 12 -18 12 -11 37 10 34 16 -3 17 -2 6 12 -18 21 -24 20
-40 -5z"/>
<path d="M2620 826 c0 -8 5 -18 12 -22 7 -5 9 -2 6 8 -5 13 -3 14 18 4 13 -6
24 -17 24 -23 0 -7 5 -13 10 -13 21 0 9 21 -22 40 -39 24 -48 25 -48 6z"/>
<path d="M430 820 c-13 -8 -13 -10 1 -10 9 0 23 -10 32 -22 8 -13 18 -20 22
-16 8 8 -21 58 -33 58 -4 0 -14 -5 -22 -10z"/>
<path d="M36 790 c-20 -21 -26 -34 -20 -40 13 -13 64 31 64 55 0 22 -11 18
-44 -15z"/>
<path d="M2484 802 c3 -24 21 -42 44 -42 6 0 12 5 12 10 0 6 -12 10 -27 10
-26 0 -26 1 -7 14 10 8 15 18 11 22 -4 5 -12 2 -16 -5 -7 -11 -10 -11 -14 0
-3 8 -5 4 -3 -9z"/>
<path d="M364 800 c-33 -13 -105 -111 -103 -142 0 -7 4 -4 8 7 7 17 10 15 20
-18 7 -20 17 -35 22 -32 14 9 11 61 -6 75 -18 15 1 50 29 50 25 0 96 22 96 29
-1 17 -47 38 -66 31z"/>
<path d="M1644 802 c4 -7 2 -19 -4 -27 -10 -12 -9 -15 9 -15 15 0 20 -4 16
-12 -4 -7 1 -4 9 6 11 13 16 15 16 6 0 -7 3 -11 6 -7 3 3 1 14 -5 24 -6 10
-11 12 -11 6 0 -7 -8 -13 -17 -13 -14 0 -15 2 -5 9 10 6 9 11 -4 22 -13 10
-16 10 -10 1z"/>
<path d="M2355 790 c-5 -16 -1 -28 16 -44 13 -12 17 -14 10 -3 -14 18 -14 18
28 21 8 1 16 7 19 15 3 10 0 12 -13 7 -11 -4 -25 0 -36 9 -16 15 -18 15 -24
-5z"/>
<path d="M1193 745 c0 -33 2 -45 4 -27 2 18 2 45 0 60 -2 15 -4 0 -4 -33z"/>
<path d="M1051 723 c0 -43 3 -73 9 -73 6 0 10 -8 10 -19 0 -15 -18 -23 -102
-44 -74 -18 -105 -22 -110 -14 -4 6 -2 15 5 19 9 5 9 8 1 8 -8 0 -10 20 -7 64
4 56 2 66 -15 75 -15 8 -23 6 -37 -9 -10 -12 -13 -20 -7 -20 7 0 12 5 12 10 0
6 4 10 9 10 5 0 12 -42 16 -94 5 -71 11 -96 22 -101 9 -3 21 -1 27 4 6 5 52
20 103 34 74 20 93 22 97 11 3 -7 -3 -18 -12 -24 -16 -11 -15 -11 1 -6 10 3
21 6 23 6 9 0 3 44 -15 113 -11 39 -21 83 -24 97 -2 14 -5 -8 -6 -47z"/>
<path d="M1578 774 c15 -10 22 -26 22 -47 1 -30 2 -31 15 -13 8 10 11 24 7 30
-3 6 -6 20 -4 31 2 18 1 19 -6 2 -7 -17 -9 -17 -21 -3 -7 9 -18 16 -24 16 -6
0 -1 -7 11 -16z"/>
<path d="M2145 780 c-2 -3 5 -17 16 -30 15 -20 19 -22 19 -7 0 15 3 16 22 5
13 -7 28 -19 34 -27 9 -12 12 -9 16 12 4 21 1 27 -13 27 -10 0 -20 4 -24 10
-3 5 -13 6 -22 3 -10 -4 -14 -2 -9 5 4 7 -1 10 -15 9 -11 -1 -22 -4 -24 -7z"/>
<path d="M2710 781 c0 -5 14 -14 31 -20 26 -9 29 -13 19 -25 -6 -9 -9 -19 -6
-25 3 -5 0 -12 -6 -15 -7 -3 -2 -3 11 0 25 7 49 -15 29 -27 -17 -11 1 -29 28
-29 13 0 24 -6 24 -12 0 -20 34 -98 43 -98 13 0 68 65 59 68 -16 5 -63 -18
-57 -28 4 -6 11 -8 16 -5 5 4 9 2 9 -3 0 -6 -7 -12 -15 -15 -10 -4 -17 5 -25
31 -5 20 -10 42 -10 48 0 5 -7 19 -16 30 -8 10 -12 12 -8 4 4 -8 3 -12 -2 -7
-4 4 -9 18 -9 30 0 17 -7 23 -34 27 -31 4 -32 6 -18 19 10 8 24 10 34 6 10 -5
26 -7 35 -6 28 3 58 -18 59 -42 l0 -22 9 22 c9 22 11 22 50 8 22 -8 40 -10 40
-5 0 6 -8 10 -17 10 -15 0 -16 2 -3 10 11 7 8 9 -15 9 -54 0 -94 12 -88 27 3
8 0 14 -7 14 -6 0 -8 -4 -5 -10 11 -17 -49 -11 -88 9 -53 27 -67 32 -67 22z"/>
<path d="M1550 758 c0 -11 -6 -14 -20 -11 -11 3 -20 1 -20 -5 0 -5 -14 -15
-31 -21 -40 -14 -39 -14 -39 6 0 25 -11 9 -20 -31 -4 -20 -4 -39 1 -42 8 -5
11 3 8 23 -1 8 73 45 78 39 2 -2 4 -12 3 -22 -1 -33 -1 -64 1 -76 2 -15 -7
-56 -16 -79 -4 -10 -14 -15 -24 -12 -9 2 -23 -3 -30 -11 -8 -9 -11 -16 -7 -16
4 0 -1 -12 -11 -26 -9 -15 -16 -40 -15 -57 1 -16 -3 -36 -10 -45 -8 -10 -9
-13 -1 -9 6 4 13 1 16 -5 3 -7 5 -4 6 7 3 84 31 133 93 160 24 10 44 20 46 21
1 0 -2 13 -8 28 -8 22 -6 30 10 46 11 11 20 25 20 32 0 9 -3 9 -11 1 -14 -14
-39 -6 -39 13 0 8 7 17 16 21 8 3 13 12 10 19 -5 13 7 19 29 14 5 -1 1 9 -10
22 -11 13 -21 25 -22 27 -2 2 -3 -3 -3 -11z"/>
<path d="M2440 763 c-8 -4 -28 -19 -43 -35 -21 -20 -24 -28 -13 -28 9 0 16 -5
16 -11 0 -5 4 -8 9 -5 5 4 12 0 14 -6 4 -10 8 -9 16 2 6 8 11 11 11 6 0 -6 5
-5 12 2 17 17 28 15 36 -8 5 -14 11 -17 22 -9 13 8 12 11 -4 24 -17 13 -17 15
-4 15 9 0 20 5 24 11 4 8 -1 9 -17 4 -13 -5 -33 -10 -44 -11 -11 -2 -32 -7
-47 -10 -19 -4 -28 -2 -28 7 0 7 3 10 6 6 3 -3 11 -2 18 4 6 5 22 18 36 29 25
19 14 26 -20 13z"/>
<path d="M2576 748 c-8 -13 -16 -30 -18 -38 -4 -18 -45 -60 -59 -60 -5 0 -9
-7 -9 -15 0 -8 9 -15 19 -15 11 0 23 -4 26 -10 3 -5 15 -10 26 -10 11 0 22 -7
25 -15 8 -20 24 -19 40 3 16 20 18 72 3 72 -5 0 -8 4 -5 8 3 5 -1 9 -9 9 -7 0
-16 -8 -18 -18 -3 -12 0 -16 10 -12 13 5 13 3 2 -15 -14 -22 -30 -23 -79 -4
l-25 9 33 8 c27 6 32 10 26 27 -4 15 -3 18 6 13 9 -5 11 -4 6 3 -4 6 -3 20 3
30 11 22 53 28 44 6 -3 -8 -1 -14 5 -14 5 0 9 10 8 22 0 11 5 23 13 26 8 3 11
0 7 -7 -4 -6 3 -16 18 -22 20 -9 29 -8 48 6 l23 17 -28 -6 c-19 -5 -26 -3 -22
4 4 6 3 9 -2 8 -4 -1 -19 2 -32 6 -16 6 -26 4 -32 -5 -6 -10 -9 -11 -9 -1 0
20 -28 14 -44 -10z"/>
<path d="M444 741 c-81 -37 -108 -84 -88 -158 9 -33 26 -17 19 17 -7 33 22 71
36 48 14 -22 10 -58 -6 -58 -11 0 -12 -5 -5 -25 7 -17 6 -27 -3 -32 -8 -5 -11
-19 -7 -38 l6 -30 18 33 c9 19 18 60 20 95 2 55 0 63 -23 84 -26 22 -26 22 -3
23 12 0 31 9 42 20 11 11 31 20 44 20 14 0 28 5 31 10 10 16 -37 11 -81 -9z"/>
<path d="M2114 752 c-6 -4 -14 -17 -18 -29 -6 -19 -3 -23 12 -23 17 0 31 24
32 53 0 9 -12 9 -26 -1z"/>
<path d="M2276 735 c2 -14 0 -25 -6 -25 -6 0 -10 -7 -8 -16 4 -25 -19 -28 -25
-4 -3 11 -13 20 -24 20 -17 -1 -17 -2 2 -16 19 -14 18 -15 -13 -12 -29 2 -37
9 -33 31 0 4 -3 7 -8 7 -5 0 -7 -20 -5 -45 4 -30 0 -52 -10 -66 -14 -20 -12
-23 17 -50 17 -16 27 -29 21 -29 -5 0 -15 5 -20 10 -7 7 -16 4 -29 -10 -20
-22 -61 -27 -68 -7 -3 6 -6 2 -6 -10 -1 -18 4 -22 28 -21 15 1 33 -2 38 -5 13
-8 75 14 90 33 7 8 10 21 7 29 -3 11 -1 11 10 2 18 -15 27 -2 19 27 -5 22 -27
30 -37 13 -11 -16 -45 -19 -58 -4 -10 12 -9 14 8 11 13 -2 19 2 18 14 -1 10 2
15 7 12 5 -3 9 -1 9 5 0 6 11 6 29 1 35 -10 55 7 45 35 -8 19 3 19 73 -3 20
-7 35 -7 38 -1 4 5 -7 9 -24 9 -42 0 -59 32 -28 53 21 15 21 15 1 11 -12 -3
-28 1 -37 10 -22 22 -26 20 -21 -9z m-56 -70 c5 3 10 -1 10 -9 0 -23 -44 -14
-49 10 -3 16 -1 16 12 5 9 -7 21 -10 27 -6z"/>
<path d="M1644 725 c3 -8 2 -16 -2 -18 -4 -2 -1 -2 6 0 8 1 20 3 28 3 21 0 9
16 -17 23 -15 4 -19 2 -15 -8z"/>
<path d="M1888 724 c-5 -4 -8 -25 -8 -46 0 -21 -3 -37 -7 -37 -19 3 -33 -2
-33 -12 0 -7 7 -8 18 -4 9 4 24 8 32 10 8 1 14 8 13 13 -2 7 4 9 13 5 13 -5
15 -16 11 -56 -3 -37 -2 -45 6 -31 14 28 38 44 64 44 24 0 41 24 49 67 4 20 2
24 -11 19 -9 -3 -14 -2 -11 3 5 8 -34 24 -41 18 -6 -7 14 -61 22 -57 4 3 9 -2
11 -12 3 -22 -34 -31 -41 -9 -2 9 -19 22 -37 30 -18 8 -27 16 -20 19 7 2 12 8
12 14 0 6 -6 8 -14 5 -9 -4 -16 1 -18 9 -2 9 -6 12 -10 8z"/>
<path d="M490 697 c-27 -24 -43 -76 -18 -61 7 4 24 21 37 37 23 27 25 28 32
11 7 -18 8 -18 8 1 1 16 3 17 11 5 5 -8 13 -11 17 -6 10 9 -25 36 -46 36 -9 0
-27 -11 -41 -23z"/>
<path d="M880 666 c0 -31 5 -58 12 -62 7 -5 8 -3 3 6 -6 10 -4 12 8 7 12 -5
17 -1 17 14 0 22 -26 89 -34 89 -4 0 -6 -24 -6 -54z"/>
<path d="M745 696 c-18 -13 -18 -14 3 -25 13 -7 22 -8 22 -2 0 5 3 16 6 25 8
20 -6 21 -31 2z"/>
<path d="M2072 681 c-11 -7 -10 -10 3 -15 9 -3 15 -12 12 -19 -2 -6 0 -20 5
-29 11 -22 0 -23 -23 -3 -15 14 -18 14 -33 0 -26 -27 -19 -33 32 -27 26 2 48
5 48 6 1 0 -6 22 -15 48 -12 35 -20 45 -29 39z"/>
<path d="M700 673 c0 -6 7 -16 15 -23 8 -7 15 -18 15 -26 0 -7 6 -17 14 -21 7
-4 16 -15 19 -23 3 -9 6 -5 6 11 1 14 -2 29 -6 33 -5 4 -8 12 -8 17 0 5 -3 8
-6 7 -4 -2 -16 6 -28 16 -12 11 -21 14 -21 9z"/>
<path d="M1174 600 c-3 -44 -10 -77 -15 -74 -5 3 -9 -4 -9 -16 0 -13 4 -19 12
-14 7 4 8 3 4 -5 -5 -7 -5 -23 -2 -36 6 -22 9 -23 32 -15 14 6 36 7 50 4 14
-4 24 -2 24 5 0 9 -36 16 -62 12 -5 0 -9 11 -9 27 -2 25 -2 24 -10 -8 -5 -21
-6 12 -3 83 3 64 3 117 0 117 -2 0 -8 -36 -12 -80z"/>
<path d="M1775 663 c-24 -14 -26 -18 -12 -21 9 -2 17 -10 17 -18 0 -8 9 -14
20 -14 11 0 20 -5 20 -11 0 -5 -4 -7 -10 -4 -5 3 -10 2 -10 -3 0 -5 -13 -7
-29 -4 -37 5 -49 -14 -15 -22 17 -5 35 -1 51 9 21 14 24 22 19 53 -3 20 -5 40
-6 45 0 11 -12 8 -45 -10z"/>
<path d="M2750 665 c11 -14 7 -19 -12 -16 -5 0 -8 -10 -8 -23 0 -13 -11 -40
-25 -60 -13 -20 -20 -36 -14 -36 6 0 8 -4 4 -10 -3 -5 -12 -7 -20 -3 -8 3 -15
0 -15 -7 0 -6 -4 -8 -10 -5 -5 3 -10 2 -10 -4 0 -5 5 -13 10 -16 19 -12 10
-22 -15 -17 -14 2 -32 -1 -40 -8 -12 -10 -15 -10 -15 3 0 15 -28 32 -38 22 -3
-2 1 -11 8 -20 7 -8 9 -15 4 -16 -5 0 2 -5 15 -10 18 -7 30 -5 47 6 22 14 24
14 24 0 0 -9 -4 -13 -10 -10 -5 3 -10 1 -10 -4 0 -6 7 -11 15 -11 8 0 15 6 15
13 0 7 9 18 20 25 11 7 20 20 20 31 0 10 9 26 19 35 10 9 22 32 25 49 10 55
12 61 24 65 18 6 14 29 -4 36 -14 5 -15 4 -4 -9z"/>
<path d="M2950 671 c0 -6 -8 -11 -19 -11 -14 0 -17 -6 -13 -25 l4 -25 24 25
c27 29 30 38 15 43 -6 2 -11 -1 -11 -7z"/>
<path d="M2695 654 c4 -15 -1 -24 -20 -32 -14 -6 -25 -16 -25 -22 0 -15 12
-12 43 13 25 21 26 24 12 42 -16 20 -16 20 -10 -1z"/>
<path d="M629 634 c-19 -13 -40 -23 -46 -23 -21 -1 -15 -16 22 -50 24 -22 35
-27 35 -16 0 11 12 15 50 15 28 0 50 3 50 6 0 4 -17 26 -38 48 l-39 42 -34
-22z m69 -36 c35 -18 26 -28 -27 -28 -44 0 -48 2 -46 23 1 12 3 23 4 25 2 5
42 -7 69 -20z"/>
<path d="M1133 634 c-28 -29 -7 -47 21 -18 18 17 21 28 7 20 -5 -4 -11 -2 -13
3 -1 5 -9 3 -15 -5z"/>
<path d="M2342 643 c-6 -3 -10 -9 -7 -14 4 -5 -7 -6 -23 -3 -17 4 -32 1 -36
-5 -5 -7 4 -11 24 -11 l30 0 -17 -26 -16 -26 39 2 c21 2 46 1 54 -2 88 -28 86
-28 67 -14 -23 17 -5 32 20 17 10 -6 14 -11 8 -11 -5 0 1 -10 15 -21 14 -11
19 -18 13 -14 -7 3 -13 1 -13 -5 0 -6 8 -10 18 -8 12 2 16 11 14 31 -3 25 -2
26 30 20 18 -3 35 -7 37 -9 8 -7 -22 -34 -37 -34 -13 0 -13 -3 -4 -12 10 -10
17 -10 32 0 17 10 20 10 20 -3 0 -8 5 -15 10 -15 6 0 10 4 10 9 0 6 -4 13 -10
16 -5 3 -10 17 -10 30 0 20 -8 25 -47 35 -27 6 -59 13 -72 14 -13 2 -32 13
-42 27 -9 13 -21 20 -25 16 -4 -4 2 -15 13 -25 16 -14 18 -19 8 -29 -19 -17
-53 -12 -48 7 3 11 -4 16 -24 18 -19 1 -24 -1 -14 -7 7 -5 9 -11 4 -14 -5 -3
-14 -2 -21 2 -8 5 -8 14 4 35 16 32 15 36 -4 29z"/>
<path d="M1377 622 c-21 -23 -22 -39 -3 -23 11 10 15 8 19 -6 3 -10 5 -3 6 15
1 37 0 38 -22 14z"/>
<path d="M124 612 c-20 -6 -47 -25 -108 -74 -12 -9 -17 -20 -13 -24 4 -5 12
-2 17 6 8 12 10 12 10 2 0 -9 12 -4 32 13 25 22 38 25 65 20 25 -4 35 -2 39
10 8 20 30 19 38 -1 9 -23 7 -31 -3 -16 -6 10 -10 7 -15 -11 -5 -21 -13 -26
-44 -29 -27 -3 -33 -6 -20 -12 11 -5 30 -2 49 8 40 20 75 20 127 2 23 -8 44
-11 47 -7 8 15 -24 34 -63 37 -20 2 -38 8 -40 14 -2 5 -7 8 -11 6 -4 -3 -8 1
-8 9 0 10 11 15 35 15 45 0 35 10 -20 20 -29 6 -45 5 -50 -3 -5 -8 -8 -6 -8 6
0 18 -17 20 -56 9z"/>
<path d="M1850 582 c0 -21 -2 -24 -10 -12 -8 13 -11 13 -25 0 -13 -14 -12 -16
12 -18 21 -1 31 4 39 23 9 19 9 25 -2 29 -10 4 -14 -3 -14 -22z"/>
<path d="M498 562 c-19 -11 -36 -38 -53 -80 -22 -55 -24 -66 -11 -83 12 -18
14 -18 20 -3 3 9 2 22 -4 29 -12 15 -3 25 23 25 10 0 38 14 62 31 27 20 51 30
63 27 11 -3 26 -2 33 3 11 7 11 9 -2 9 -8 0 -33 13 -55 30 -45 34 -41 33 -76
12z m47 -27 c-1 -14 -4 -27 -6 -28 -19 -14 -59 -37 -63 -37 -3 0 2 16 11 35 9
19 23 35 30 35 8 0 11 5 8 10 -3 6 0 10 9 10 9 0 13 -8 11 -25z"/>
<path d="M1983 535 c-28 -14 -54 -32 -57 -40 -8 -21 0 -19 38 10 17 13 47 31
66 39 19 8 28 15 19 16 -8 0 -38 -11 -66 -25z"/>
<path d="M2984 535 c7 -29 3 -31 -18 -9 -9 8 -16 11 -16 5 0 -6 -7 -11 -15
-11 -8 0 -15 -4 -15 -10 0 -5 18 -10 40 -10 38 0 40 2 40 30 0 17 -5 30 -11
30 -7 0 -9 -10 -5 -25z"/>
<path d="M1615 527 c-17 -26 -47 -119 -40 -125 2 -3 11 2 19 11 19 19 178 35
184 18 4 -11 32 -16 32 -6 0 3 -5 12 -12 19 -9 10 -37 12 -105 8 -80 -4 -93
-3 -93 11 0 26 28 34 88 26 35 -5 58 -4 60 1 2 6 10 10 18 10 8 0 14 7 14 16
0 13 -8 15 -52 9 -29 -4 -57 -11 -62 -16 -15 -13 -32 -11 -19 2 12 12 7 39 -8
39 -5 0 -15 -10 -24 -23z"/>
<path d="M1867 535 c-27 -19 -22 -39 6 -23 12 7 28 11 36 9 7 -1 11 3 9 10 -6
17 -31 19 -51 4z"/>
<path d="M1790 536 c0 -4 13 -25 30 -46 35 -44 53 -87 40 -95 -12 -8 -1 -35
15 -35 7 0 15 11 17 25 3 14 2 25 -3 25 -4 0 -12 15 -19 33 -10 30 -80 111
-80 93z"/>
<path d="M2265 530 c-17 -7 -15 -9 13 -9 18 -1 42 -6 54 -12 23 -12 30 -9 19
9 -10 16 -61 23 -86 12z"/>
<path d="M953 517 c-35 -13 -53 -27 -34 -27 7 0 9 -6 6 -12 -4 -7 1 -4 9 7 9
10 29 25 44 31 35 16 17 16 -25 1z"/>
<path d="M2752 510 c7 -11 16 -20 20 -20 4 0 4 -7 1 -17 -4 -11 -3 -14 5 -9 7
4 24 13 38 21 l26 13 -30 16 c-17 9 -40 16 -52 16 -18 0 -19 -2 -8 -20z"/>
<path d="M1010 507 c0 -5 -4 -5 -10 -2 -5 3 -10 2 -10 -4 0 -5 16 -9 35 -8 39
2 49 22 10 22 -14 0 -25 -4 -25 -8z"/>
<path d="M2016 505 c-15 -8 -35 -15 -44 -15 -8 0 -12 -3 -9 -7 9 -8 87 17 87
29 0 10 0 10 -34 -7z"/>
<path d="M2230 490 c0 -5 19 -10 43 -9 36 1 38 2 17 9 -36 12 -60 12 -60 0z"/>
<path d="M293 468 c1 -6 17 -19 34 -29 42 -22 85 -30 80 -15 -2 6 -9 11 -15
11 -5 0 -14 4 -19 8 -7 8 -70 37 -79 37 -2 0 -3 -5 -1 -12z"/>
<path d="M2163 461 c-11 -11 -24 -17 -27 -14 -3 4 -6 4 -6 0 0 -3 11 -17 24
-30 16 -16 29 -21 38 -16 20 13 38 11 38 -6 0 -9 9 -15 23 -15 13 0 29 -6 35
-12 10 -10 15 -10 21 1 5 8 18 12 30 8 18 -4 20 -2 15 20 l-6 24 61 -7 c43 -5
61 -3 61 5 0 6 -15 11 -34 11 -37 0 -120 14 -151 26 -18 7 -18 6 -6 -9 7 -9
19 -17 27 -17 21 0 25 -17 7 -31 -15 -12 -16 -12 -10 4 5 15 -1 17 -46 18 -48
2 -67 3 -92 8 -23 4 32 31 64 31 42 0 38 5 -10 14 -27 5 -40 2 -56 -13z"/>
<path d="M1120 455 c-1 -11 -2 -24 -1 -29 1 -5 -5 -16 -14 -26 -14 -15 -14
-18 0 -30 13 -10 15 -9 15 8 0 11 5 22 11 24 7 2 8 14 1 38 -7 24 -11 29 -12
15z"/>
<path d="M23 438 c-15 -7 -23 -20 -23 -36 l0 -25 23 20 c12 11 33 27 47 36
l24 17 -24 -1 c-14 0 -35 -5 -47 -11z"/>
<path d="M878 437 c-7 -8 -18 -16 -24 -18 -7 -2 -8 -12 -4 -24 8 -20 8 -20 15
0 5 11 15 28 23 38 18 20 10 23 -10 4z"/>
<path d="M1289 447 c-4 -18 -6 -24 -23 -57 -10 -19 -29 -46 -42 -60 -23 -25
-23 -25 -7 -83 14 -47 14 -60 4 -67 -10 -6 -10 -9 -1 -15 7 -4 25 6 43 25 l32
33 -28 -5 c-22 -4 -25 -3 -16 8 8 9 8 14 1 14 -19 0 -25 60 -8 79 9 10 16 23
16 30 0 7 4 10 8 7 10 -6 37 82 28 91 -3 4 -7 3 -7 0z"/>
<path d="M1928 428 c-7 -41 2 -58 31 -58 49 0 54 20 14 51 -20 16 -37 29 -38
29 -2 0 -4 -10 -7 -22z"/>
<path d="M2694 424 c-21 -14 -44 -37 -51 -51 -12 -24 -11 -24 10 -10 12 9 21
20 20 25 -1 6 18 19 42 29 25 10 45 21 45 26 0 14 -26 7 -66 -19z"/>
<path d="M242 409 c-9 -14 -5 -17 27 -22 20 -2 62 -16 93 -31 30 -14 59 -26
65 -26 9 0 50 -50 68 -84 6 -11 18 -20 28 -22 28 -4 62 -54 37 -54 -5 0 -10
-5 -10 -11 0 -6 7 -9 14 -6 10 4 13 1 10 -7 -3 -7 3 -16 13 -19 20 -7 51 -26
71 -44 7 -7 19 -13 27 -13 7 0 21 -3 31 -7 12 -4 15 -2 12 8 -3 8 -10 15 -16
15 -7 1 -13 2 -14 4 -2 1 -11 3 -21 5 -28 5 -118 113 -117 140 1 26 -1 35 -7
33 -25 -5 -82 35 -97 67 -14 28 -20 34 -31 25 -9 -8 -15 -8 -20 0 -3 5 -1 10
4 10 6 0 11 5 11 11 0 6 -7 9 -15 5 -17 -6 -75 12 -75 24 0 4 -18 10 -39 12
-28 2 -42 -1 -49 -13z"/>
<path d="M2040 417 c0 -13 21 -36 48 -51 26 -15 11 24 -18 44 -22 16 -30 18
-30 7z"/>
<path d="M2854 416 c-11 -8 -27 -14 -35 -14 -34 2 -49 -3 -49 -17 0 -13 4 -14
21 -5 11 7 23 9 26 6 6 -5 83 31 83 39 0 10 -26 5 -46 -9z"/>
<path d="M1650 407 l-35 -11 55 -7 c65 -8 113 -28 106 -45 -2 -6 0 -16 5 -21
7 -7 2 -17 -14 -30 l-25 -20 29 -27 c31 -29 39 -23 14 10 -16 21 -20 38 -6 30
5 -3 11 4 14 15 3 12 10 18 16 15 12 -8 25 30 15 46 -5 8 -2 9 10 5 37 -15 3
14 -41 33 -50 22 -89 24 -143 7z"/>
<path d="M2517 402 c29 -23 39 -76 20 -105 -12 -19 -12 -26 -2 -40 12 -17 45
-24 45 -9 0 5 -6 17 -14 28 -16 22 -4 46 20 37 25 -9 15 13 -11 25 -16 8 -25
20 -25 35 0 27 -17 47 -39 47 -12 0 -11 -5 6 -18z"/>
<path d="M1006 388 c-27 -38 -18 -48 14 -16 34 34 36 38 16 38 -8 0 -22 -10
-30 -22z"/>
<path d="M135 392 c-35 -8 -67 -57 -48 -75 7 -8 75 62 71 72 -2 4 -12 5 -23 3z"/>
<path d="M480 392 c0 -6 8 -15 18 -21 15 -9 15 -11 -8 -20 -14 -5 -19 -10 -12
-10 6 -1 12 -7 12 -14 0 -9 10 -12 30 -9 26 4 30 8 30 36 0 19 -5 33 -12 34
-7 0 -23 4 -35 7 -14 5 -23 3 -23 -3z"/>
<path d="M1475 391 c-48 -6 -49 -6 -20 -15 17 -4 46 -10 66 -11 32 -3 36 -1
32 16 -3 10 -10 18 -17 17 -6 0 -33 -4 -61 -7z"/>
<path d="M2593 365 c-13 -30 -4 -33 20 -5 20 24 21 30 5 30 -7 0 -18 -11 -25
-25z"/>
<path d="M582 351 c-25 -65 -24 -69 12 -55 9 3 13 10 10 15 -3 5 1 7 8 4 7 -2
38 -1 68 3 41 5 56 11 58 25 3 14 -4 17 -35 17 -21 0 -55 4 -75 9 -34 8 -37 7
-46 -18z"/>
<path d="M1655 373 c11 -3 30 -16 43 -29 13 -13 28 -21 34 -18 17 11 -43 54
-72 53 -21 -1 -21 -2 -5 -6z"/>
<path d="M2400 373 c0 -10 52 -34 59 -28 6 7 -31 34 -46 35 -7 0 -13 -3 -13
-7z"/>
<path d="M2493 360 c-7 -11 -13 -25 -13 -32 0 -7 5 -5 11 5 10 17 12 17 23 1
8 -11 15 -13 19 -7 4 6 -1 21 -11 32 -17 22 -17 22 -29 1z"/>
<path d="M2720 369 c0 -6 -6 -9 -14 -6 -8 3 -19 0 -25 -7 -8 -9 -7 -13 2 -14
6 -1 23 -4 37 -7 21 -5 26 -3 27 13 1 11 -5 23 -13 26 -8 3 -14 1 -14 -5z"/>
<path d="M60 355 c0 -7 -8 -18 -17 -24 -10 -5 -15 -13 -11 -17 4 -4 14 -2 22
5 17 14 28 51 15 51 -5 0 -9 -7 -9 -15z"/>
<path d="M1586 348 c-4 -16 -11 -19 -30 -16 -15 3 -27 0 -30 -8 -3 -8 -13 -14
-23 -14 -22 1 -55 25 -46 33 3 4 -1 7 -10 7 -20 0 -22 -23 -4 -38 7 -6 31 -13
53 -14 33 -3 39 -7 38 -25 -1 -18 2 -20 16 -11 16 10 16 12 -4 32 l-20 20 34
9 c19 5 50 10 68 10 42 1 41 11 -2 24 -31 9 -35 8 -40 -9z"/>
<path d="M2007 358 l-29 -10 42 -25 c51 -31 73 -19 38 20 -20 22 -27 24 -51
15z"/>
<path d="M764 348 c-5 -7 -14 -28 -20 -45 -10 -29 -9 -33 5 -33 9 0 23 5 31
10 13 8 12 10 -2 10 -20 0 -24 15 -7 26 13 8 79 8 122 -1 29 -5 30 -5 14 8
-10 8 -39 18 -64 22 -25 4 -51 9 -58 11 -7 3 -17 -1 -21 -8z"/>
<path d="M214 337 c-12 -6 -44 -24 -73 -40 -28 -15 -51 -32 -51 -37 0 -14 8
-12 38 9 40 27 109 61 127 61 9 0 15 -9 15 -23 0 -38 -85 -103 -126 -96 -23 4
-114 -29 -114 -42 0 -5 7 -9 15 -9 8 0 15 -6 15 -14 0 -24 17 -27 79 -15 57
12 59 14 50 36 -14 37 -11 43 20 43 22 0 31 6 41 29 9 22 24 34 58 45 25 9 54
16 64 16 10 0 18 4 18 9 0 15 -56 32 -82 26 -15 -4 -29 -2 -32 4 -9 14 -36 14
-62 -2z m-56 -160 c3 -14 -4 -17 -37 -17 -45 0 -53 11 -18 28 30 15 51 11 55
-11z"/>
<path d="M1080 336 c0 -12 -5 -16 -15 -12 -13 5 -13 2 1 -19 9 -14 18 -25 21
-25 9 0 42 45 43 58 0 15 -16 16 -26 1 -4 -8 -9 -7 -15 2 -7 11 -9 10 -9 -5z"/>
<path d="M2883 343 c-40 -2 -73 -8 -73 -13 0 -6 6 -10 14 -10 8 0 17 -6 19
-12 4 -10 6 -10 6 0 1 19 57 15 103 -8 52 -25 52 -25 31 7 -17 26 -17 27 0 20
11 -4 17 -2 17 8 0 9 -8 14 -22 13 -13 -1 -56 -4 -95 -5z"/>
<path d="M1367 311 c-12 -55 -9 -70 11 -64 10 2 24 -2 30 -10 10 -11 1 -25
-47 -70 -69 -66 -88 -72 -64 -22 9 19 20 35 24 35 4 0 9 9 12 20 3 11 2 20 -1
20 -11 0 -51 -66 -58 -94 l-6 -26 111 1 c61 0 113 4 116 9 3 4 14 6 24 3 52
-14 5 57 -49 72 -24 7 -24 7 -5 -8 11 -8 23 -13 26 -11 4 2 12 -2 18 -10 9
-11 8 -15 -5 -20 -19 -7 -34 0 -34 18 0 19 -37 26 -51 10 -20 -25 -28 -15 -13
16 13 26 28 34 54 32 3 0 6 8 6 18 0 14 -3 16 -13 8 -9 -7 -18 -7 -29 3 -15
12 -14 15 5 30 28 23 15 32 -16 11 -25 -16 -25 -16 -18 7 5 15 4 21 -3 17 -6
-3 -12 4 -14 16 -3 19 -5 17 -11 -11z m79 -166 c-3 -8 0 -15 6 -15 26 0 -5
-14 -34 -15 -31 -2 -31 -1 -10 15 12 10 18 20 15 24 -4 3 2 6 11 6 12 0 16 -5
12 -15z"/>
<path d="M2315 320 c4 -14 14 -33 23 -43 15 -16 16 -16 33 10 22 33 16 43 -11
18 -17 -15 -20 -16 -20 -3 0 9 -7 22 -16 29 -15 12 -16 11 -9 -11z"/>
<path d="M2390 334 c0 -3 13 -10 30 -15 26 -10 28 -14 23 -41 -4 -22 -3 -29 5
-24 7 4 12 20 12 35 0 20 -7 31 -25 39 -28 13 -45 15 -45 6z"/>
<path d="M2621 321 c-11 -7 -11 -9 0 -14 12 -5 11 -7 -1 -16 -8 -5 -11 -13 -7
-17 4 -4 16 3 27 16 16 19 22 21 35 10 8 -7 15 -9 15 -5 0 10 -32 34 -45 35
-5 0 -16 -4 -24 -9z"/>
<path d="M1662 308 c3 -7 13 -15 24 -17 24 -4 66 -49 53 -56 -5 -4 -19 -8 -31
-10 -12 -3 -25 -10 -30 -17 -6 -9 -8 -5 -6 12 2 17 9 25 20 24 10 -1 15 2 12
7 -3 5 -12 9 -20 9 -8 0 -14 5 -14 10 0 6 -10 10 -23 10 -13 0 -28 5 -35 12
-9 9 -12 9 -12 0 0 -7 5 -12 11 -12 8 0 8 -5 -1 -15 -10 -12 -10 -15 3 -15 8
0 17 4 19 9 2 5 11 4 21 -4 18 -13 18 -14 -2 -34 -21 -21 -56 -19 -48 4 3 6 0
12 -6 12 -7 0 -21 4 -32 8 -20 8 -20 8 0 -8 16 -14 17 -18 6 -26 -11 -7 -11
-9 0 -13 8 -3 11 -9 7 -13 -4 -4 -14 -2 -22 5 -9 6 -21 10 -28 7 -8 -3 0 -10
17 -16 21 -9 36 -9 53 -1 13 5 54 11 90 12 37 1 59 3 50 5 -22 5 -23 19 -3 27
21 8 36 -23 22 -46 -10 -15 -8 -21 11 -33 30 -22 28 -42 -8 -60 -32 -17 -40
-35 -15 -35 8 0 15 -4 15 -10 0 -5 -9 -10 -20 -10 -11 0 -20 5 -20 11 0 5 -4
8 -10 4 -19 -12 2 -35 31 -33 16 1 29 5 29 8 0 3 23 6 52 7 28 2 55 7 58 13 4
6 15 53 25 105 15 77 16 96 6 109 -19 23 -33 9 -17 -17 18 -30 -12 -165 -32
-145 -11 11 -11 8 -3 -15 6 -16 11 -30 11 -31 0 -6 -89 2 -100 9 -8 5 -1 18
19 37 33 32 40 51 16 42 -20 -8 -33 45 -14 57 11 6 6 17 -23 46 -28 28 -35 42
-28 53 15 24 11 31 -10 18 -16 -10 -24 -10 -40 0 -25 15 -33 15 -28 0z"/>
<path d="M2750 306 c0 -14 26 -29 38 -22 4 2 18 -8 32 -22 14 -13 20 -22 13
-18 -6 3 -14 2 -18 -4 -4 -7 -13 -7 -28 1 -12 5 -3 -7 21 -28 38 -34 58 -64
32 -48 -5 3 -10 1 -10 -4 0 -16 12 -13 39 10 26 21 24 29 -6 32 -11 0 -20 7
-20 14 0 9 4 10 13 2 8 -7 14 -7 19 1 7 11 -21 39 -39 40 -4 0 -6 7 -2 15 3 8
2 14 -2 14 -20 -3 -25 2 -12 12 13 9 12 10 -3 5 -9 -3 -28 -1 -42 4 -19 7 -25
6 -25 -4z"/>
<path d="M395 288 c-11 -10 -20 -35 -22 -54 -2 -29 1 -33 14 -25 18 9 109 -11
126 -28 18 -18 25 -12 19 15 -3 16 -7 21 -12 14 -10 -16 -53 -2 -46 15 7 20
-42 26 -54 6 -8 -14 -10 -13 -10 4 -1 20 -1 20 -10 0 -6 -13 -9 -15 -9 -5 -1
8 6 28 14 44 19 35 16 39 -10 14z"/>
<path d="M2295 285 c4 -11 9 -37 12 -57 3 -21 10 -38 14 -38 5 0 9 3 10 8 0 4
2 17 5 29 2 14 -6 32 -22 50 -20 22 -24 24 -19 8z"/>
<path d="M2866 291 c-3 -5 2 -19 12 -31 15 -18 20 -20 29 -9 8 11 6 18 -12 32
-13 9 -26 13 -29 8z"/>
<path d="M335 283 c-33 -8 -42 -23 -13 -23 14 0 31 7 38 15 13 15 10 16 -25 8z"/>
<path d="M1150 281 c0 -6 5 -13 10 -16 18 -11 11 -58 -12 -82 -12 -13 -16 -23
-9 -23 6 0 14 7 17 15 10 25 24 17 24 -15 0 -20 -5 -30 -15 -30 -27 0 -15 -18
15 -22 33 -5 35 0 20 52 -7 23 -6 36 1 41 7 4 6 11 -4 20 -7 8 -17 27 -21 42
-6 25 -26 39 -26 18z"/>
<path d="M2081 281 c-8 -5 -19 -7 -25 -5 -7 3 -11 -19 -11 -64 0 -54 -5 -74
-23 -100 -23 -32 -16 -45 10 -19 7 7 32 18 55 24 34 9 46 8 64 -5 20 -14 22
-14 17 0 -4 10 2 19 18 27 26 11 32 31 10 31 -7 0 -20 -10 -28 -22 -9 -14 -19
-19 -28 -13 -10 6 -9 11 5 22 17 12 16 13 -14 13 -45 0 -76 17 -61 35 6 7 10
17 9 21 -7 38 18 38 61 -1 14 -13 39 -26 57 -30 18 -3 33 -14 35 -23 3 -14 6
-13 17 7 11 19 11 23 -1 19 -20 -8 -48 10 -42 27 4 10 0 15 -11 15 -9 0 -31
11 -49 25 -36 27 -44 29 -65 16z m26 -138 c-7 -6 -25 -15 -40 -19 -27 -6 -28
-5 -16 14 9 14 22 20 41 19 21 -2 25 -5 15 -14z"/>
<path d="M2386 273 c-2 -2 -1 -15 2 -28 3 -20 7 -23 18 -14 19 15 18 46 -1 46
-8 0 -17 -2 -19 -4z"/>
<path d="M2459 244 c-43 -36 -58 -54 -43 -54 4 0 16 7 26 17 16 14 18 14 18 1
0 -9 7 -18 15 -22 8 -3 15 -12 15 -21 0 -24 36 -17 48 9 11 24 6 40 -9 30 -5
-3 -9 -14 -9 -25 0 -17 -2 -18 -13 -7 -7 7 -18 27 -25 43 -10 25 -10 27 1 14
11 -14 16 -15 31 -4 16 12 16 14 -5 20 -16 6 -18 9 -8 16 7 4 11 11 8 14 -4 3
-26 -11 -50 -31z"/>
<path d="M2673 233 c9 -11 17 -27 17 -36 0 -21 14 -22 34 -1 22 21 20 31 -6
39 -68 19 -65 20 -45 -2z"/>
<path d="M1111 213 c0 -16 3 -22 6 -15 2 6 11 12 19 12 19 0 18 16 -2 24 -23
9 -24 8 -23 -21z"/>
<path d="M2610 220 c18 -13 27 -15 32 -7 7 12 -14 25 -42 26 -10 0 -6 -6 10
-19z"/>
<path d="M600 221 c0 -6 5 -11 10 -11 6 0 10 -4 10 -10 0 -5 -8 -7 -17 -3 -17
6 -17 5 -1 -13 17 -18 18 -18 33 1 8 11 13 25 11 30 -4 14 -46 19 -46 6z"/>
<path d="M975 223 c-22 -6 -136 -81 -147 -97 -8 -12 -1 -26 13 -26 5 0 9 9 9
19 0 22 65 65 82 55 6 -4 8 -2 4 4 -3 6 -2 13 4 17 5 3 10 1 10 -5 0 -8 6 -8
20 0 33 17 44 1 19 -26 -15 -16 -25 -20 -30 -13 -4 7 -16 -2 -30 -22 -22 -31
-49 -77 -49 -84 0 -2 18 -6 40 -10 22 -4 47 -13 55 -21 12 -12 13 -10 8 19
l-5 32 79 -3 c48 -3 84 -9 94 -18 8 -8 24 -14 34 -14 15 0 16 2 4 18 -11 14
-11 15 1 5 15 -14 44 -18 37 -5 -6 9 205 8 220 -1 6 -4 19 -4 30 0 17 6 17 5
-1 -15 -22 -25 -15 -42 9 -22 10 8 15 9 15 1 0 -6 4 -11 10 -11 6 0 6 9 0 25
-6 16 -6 25 0 25 6 0 10 6 10 13 0 9 -50 13 -208 15 -114 2 -237 5 -274 8 -49
4 -68 2 -68 -6 0 -7 -7 -10 -15 -7 -8 4 -17 2 -20 -3 -3 -4 1 -10 7 -13 7 -2
10 -7 6 -11 -3 -4 -16 -2 -28 4 -18 10 -20 14 -9 21 8 5 10 9 5 9 -5 0 1 11
13 24 24 25 61 41 61 25 0 -16 29 -10 50 11 16 16 18 24 9 47 -15 40 -29 47
-74 36z"/>
<path d="M760 186 c0 -30 -3 -34 -20 -31 -11 2 -18 0 -15 -6 4 -5 15 -9 26 -9
16 0 19 7 19 40 0 22 -2 40 -5 40 -3 0 -5 -15 -5 -34z"/>
<path d="M2902 204 c15 -18 15 -20 0 -34 -9 -8 -18 -13 -20 -12 -2 2 -6 1 -9
-2 -4 -3 8 -6 25 -6 22 0 35 -7 43 -22 l12 -22 23 28 c13 15 24 34 24 42 0 19
-34 18 -51 -3 -13 -14 -15 -13 -19 13 -3 18 -12 30 -25 33 -19 3 -19 2 -3 -15z"/>
<path d="M686 201 c-1 -3 0 -17 5 -31 4 -16 7 -19 8 -8 1 11 6 15 16 12 9 -4
15 0 15 9 0 8 6 17 13 20 6 3 -3 5 -21 4 -18 0 -34 -3 -36 -6z"/>
<path d="M2596 189 c3 -6 1 -15 -6 -19 -9 -5 -10 -17 -4 -36 l8 -29 4 27 c2
18 8 25 18 21 17 -6 19 18 2 35 -15 15 -31 16 -22 1z"/>
<path d="M1701 155 c-17 -10 -31 -10 -53 -3 -16 6 -32 8 -35 4 -3 -3 8 -9 25
-12 17 -4 31 -9 30 -13 -3 -25 5 -33 12 -13 5 12 18 22 29 22 10 0 21 7 25 15
6 18 -1 18 -33 0z"/>
<path d="M305 151 c-3 -6 -18 -11 -33 -11 -21 0 -24 -2 -12 -10 18 -12 20 -11
-58 -16 -38 -2 -69 -10 -78 -18 -8 -9 -21 -13 -29 -10 -18 7 -85 -14 -85 -27
0 -5 15 -9 34 -9 18 0 53 -7 76 -15 52 -18 69 -19 48 -2 -9 6 -18 21 -20 32
-2 15 3 21 25 23 27 3 27 3 21 -39 -5 -31 -4 -40 4 -35 7 4 12 23 12 42 0 37
11 42 50 19 29 -16 74 -20 65 -5 -3 6 -17 10 -30 10 -13 0 -27 5 -30 10 -6 11
0 14 48 25 19 4 27 11 25 22 -4 20 -24 28 -33 14z"/>
<path d="M2432 142 c-7 -9 -10 -12 -7 -5 3 7 -2 11 -15 10 -11 -1 -18 -6 -15
-12 3 -5 8 -18 11 -27 7 -20 24 -24 24 -6 0 6 7 19 16 29 8 9 11 19 7 22 -5 3
-15 -2 -21 -11z"/>
<path d="M1090 140 c-12 -8 -12 -10 3 -16 9 -3 17 -12 17 -20 0 -8 5 -14 10
-14 11 0 13 20 4 44 -7 18 -13 19 -34 6z"/>
<path d="M2480 129 c0 -6 -4 -7 -10 -4 -5 3 -10 -3 -10 -14 0 -12 -4 -21 -10
-21 -12 0 -14 -33 -2 -44 4 -4 8 -12 8 -17 1 -5 2 -13 3 -19 0 -5 13 -10 29
-9 27 0 27 1 5 11 -25 12 -32 34 -8 24 9 -3 15 0 15 10 0 8 -4 12 -10 9 -16
-10 -12 32 5 49 8 8 15 17 15 19 0 3 -7 7 -15 11 -8 3 -15 1 -15 -5z"/>
<path d="M379 104 c-12 -15 -11 -16 11 -9 46 14 58 24 29 25 -15 0 -33 -7 -40
-16z"/>
<path d="M515 108 c-11 -6 -44 -19 -74 -28 -49 -16 -53 -18 -34 -28 16 -9 24
-8 33 3 7 8 18 15 25 15 8 0 34 9 59 20 27 11 48 15 51 10 4 -6 12 -10 18 -10
7 0 3 7 -7 15 -23 18 -44 19 -71 3z"/>
<path d="M1803 85 l-21 -25 21 0 c16 0 22 6 23 25 1 14 1 25 0 25 0 0 -11 -12
-23 -25z"/>
<path d="M2559 88 c5 -13 9 -26 10 -30 1 -10 7 -11 24 -5 8 2 7 11 -6 30 -22
33 -40 36 -28 5z"/>
<path d="M2882 88 c-7 -7 -12 -9 -12 -5 0 3 -12 -5 -26 -20 -14 -14 -23 -27
-20 -30 5 -5 106 55 106 63 0 9 -37 3 -48 -8z"/>
<path d="M813 83 c-20 -7 -15 -37 8 -51 26 -17 28 -15 22 26 -5 32 -8 35 -30
25z"/>
<path d="M2014 73 c-22 -8 -56 -26 -74 -42 l-34 -28 33 0 c21 0 30 4 27 13 -8
20 6 25 20 6 12 -16 13 -15 14 5 0 31 18 38 41 17 18 -16 19 -16 13 -1 -3 10
-1 24 6 32 15 18 9 17 -46 -2z"/>
<path d="M1614 45 c-18 -44 -18 -45 4 -45 14 0 18 8 17 40 0 22 -1 40 -3 40
-2 0 -10 -16 -18 -35z"/>
<path d="M2887 35 c-43 -30 -43 -31 -18 -31 11 0 17 4 15 8 -6 9 31 29 40 21
3 -3 6 1 6 10 0 21 2 22 -43 -8z"/>
<path d="M682 38 c-7 -7 -12 -15 -12 -18 0 -10 91 -3 103 9 6 6 9 11 7 12 -62
7 -88 7 -98 -3z"/>
<path d="M2963 25 c15 -32 32 -32 35 0 1 20 -3 25 -22 25 -22 0 -23 -2 -13
-25z"/>
<path d="M1072 20 c9 -13 23 -20 43 -19 16 0 23 3 15 6 -8 3 -28 12 -43 20
-27 13 -27 13 -15 -7z"/>
<path d="M1304 28 c-3 -4 5 -8 18 -8 13 0 29 -5 36 -12 9 -9 12 -9 12 0 0 7 9
12 20 12 11 0 20 5 20 10 0 12 -98 11 -106 -2z"/>
<path d="M285 21 c-6 -5 -17 -11 -25 -14 -8 -2 -1 -2 15 0 17 3 40 6 52 7 12
0 25 4 29 9 11 10 -60 9 -71 -2z"/>
<path d="M1226 19 c-56 -13 -56 -18 -3 -17 26 0 44 4 42 9 -3 4 3 10 12 12 34
9 -11 5 -51 -4z"/>
</g>
</svg>
